<?xml version="1.0" standalone="no"?>
<!DOCTYPE svg PUBLIC "-//W3C//DTD SVG 20010904//EN"
 "http://www.w3.org/TR/2001/REC-SVG-20010904/DTD/svg10.dtd">
<svg version="1.0" xmlns="http://www.w3.org/2000/svg"
 width="200.000000pt" height="74.000000pt" viewBox="0 0 200.000000 74.000000"
 preserveAspectRatio="xMidYMid meet">

<g transform="translate(0.000000,74.000000) scale(0.100000,-0.100000)"
fill="#000000" stroke="none">
<path d="M889 673 c0 -5 -1 -32 -1 -60 l0 -53 -38 0 c-74 0 -129 -77 -116
-162 12 -77 51 -108 134 -108 98 0 92 -14 92 201 l0 189 -35 0 c-19 0 -35 -3
-36 -7z m-4 -243 c0 -83 -1 -85 -24 -88 -35 -5 -51 22 -51 85 0 57 25 97 58
91 14 -3 17 -16 17 -88z"/>
<path d="M1490 655 c-20 -24 -8 -50 24 -50 36 0 56 26 37 49 -17 20 -45 21
-61 1z"/>
<path d="M213 550 c-14 -6 -20 -15 -17 -27 4 -15 15 -18 62 -18 50 0 57 -2 57
-20 0 -15 -9 -21 -45 -27 -50 -8 -100 -53 -100 -89 0 -11 13 -34 29 -50 26
-25 37 -29 88 -29 105 0 103 -2 103 106 0 103 -10 136 -47 153 -28 13 -99 13
-130 1z m107 -170 c0 -49 -1 -50 -30 -50 -69 0 -57 96 13 99 14 1 17 -8 17
-49z"/>
<path d="M480 551 c-25 -7 -25 -7 -25 -131 l0 -125 38 -3 37 -3 0 111 0 111
33 -3 32 -3 3 -108 3 -108 37 3 37 3 3 103 c3 102 3 103 -27 132 -26 27 -36
30 -88 29 -32 -1 -69 -4 -83 -8z"/>
<path d="M1042 550 c-22 -9 -23 -13 -20 -132 l3 -123 38 -3 37 -3 0 110 0 110
28 3 c19 2 28 9 30 26 3 20 0 22 -45 21 -26 0 -58 -4 -71 -9z"/>
<path d="M1238 531 c-32 -28 -33 -32 -33 -106 0 -74 1 -78 33 -106 26 -23 41
-29 80 -29 71 0 94 9 90 34 -3 19 -8 21 -51 18 -36 -3 -54 1 -68 14 -31 28
-23 41 29 48 109 15 105 13 99 64 -7 62 -41 92 -102 92 -35 0 -52 -6 -77 -29z
m93 -21 c23 -13 25 -55 3 -64 -9 -3 -29 -6 -46 -6 -28 0 -30 2 -24 28 4 15 14
33 23 40 20 15 20 15 44 2z"/>
<path d="M1480 425 l0 -136 38 3 37 3 0 130 0 130 -37 3 -38 3 0 -136z"/>
<path d="M1653 553 c-24 -5 -27 -11 -18 -35 4 -11 19 -13 59 -10 44 3 54 1 60
-14 8 -21 -4 -30 -56 -38 -76 -12 -112 -84 -69 -137 15 -19 30 -24 82 -27 35
-2 77 1 92 7 l29 11 -4 101 c-3 96 -4 102 -31 125 -28 24 -78 30 -144 17z
m105 -170 c-3 -41 -6 -48 -26 -51 -30 -4 -52 14 -52 44 0 25 34 54 63 54 15 0
18 -7 15 -47z"/>
<path d="M644 226 c-3 -7 -4 -40 -2 -72 l3 -59 5 73 c5 72 4 84 -6 58z"/>
<path d="M1813 170 c0 -41 2 -58 4 -37 2 20 2 54 0 75 -2 20 -4 3 -4 -38z"/>
<path d="M181 128 c1 -40 4 -63 6 -50 3 13 12 22 23 22 37 0 54 67 23 91 -15
11 -16 11 -5 -1 25 -28 8 -80 -26 -80 -10 0 -13 11 -10 45 2 25 0 45 -4 45 -5
0 -7 -33 -7 -72z"/>
<path d="M344 186 c-3 -8 -4 -29 -1 -48 3 -30 4 -30 5 9 1 23 8 44 15 46 9 4
9 6 -1 6 -7 1 -15 -5 -18 -13z"/>
<path d="M474 186 c-9 -25 0 -69 18 -79 38 -25 68 54 31 84 -15 13 -15 12 -3
-7 17 -28 6 -77 -18 -72 -21 4 -29 53 -11 74 8 10 8 14 0 14 -6 0 -14 -6 -17
-14z"/>
<path d="M767 193 c-12 -11 -8 -68 5 -81 7 -7 21 -12 32 -11 18 1 17 2 -4 8
-20 5 -26 14 -28 44 -3 31 0 37 17 37 30 0 36 -19 9 -29 -23 -10 -23 -10 -1
-10 28 -1 38 15 23 34 -13 16 -42 20 -53 8z"/>
<path d="M923 183 c-4 -11 1 -22 15 -31 28 -18 28 -30 0 -42 -23 -10 -23 -10
2 -7 33 3 39 34 10 54 -12 8 -19 21 -16 29 3 8 3 14 0 14 -2 0 -8 -8 -11 -17z"/>
<path d="M1065 189 c-4 -6 2 -21 14 -33 24 -25 27 -43 9 -49 -8 -2 -7 -3 2 -3
24 2 24 43 1 56 -27 14 -27 28 2 33 22 4 22 4 0 6 -12 0 -25 -4 -28 -10z"/>
<path d="M1213 150 c0 -30 2 -43 4 -28 2 16 2 40 0 56 -2 15 -4 2 -4 -28z"/>
<path d="M1327 193 c-13 -13 -7 -71 9 -84 19 -15 47 -2 52 25 5 26 -7 66 -19
66 -8 0 -8 -4 0 -14 20 -23 10 -71 -14 -71 -24 0 -34 48 -14 71 11 14 -1 21
-14 7z"/>
<path d="M1489 198 c0 -2 -1 -22 -2 -46 -3 -56 10 -54 15 3 2 25 0 45 -4 45
-5 0 -8 -1 -9 -2z"/>
<path d="M1527 193 c6 -5 14 -29 16 -53 l4 -45 -1 49 c-1 35 -5 51 -16 53 -10
3 -11 2 -3 -4z"/>
<path d="M1686 193 c5 -4 11 -25 12 -45 2 -33 0 -38 -19 -38 -18 0 -20 4 -16
27 5 26 4 26 -9 9 -17 -24 -1 -48 30 -44 18 3 21 10 21 47 0 31 -5 46 -15 48
-9 3 -11 1 -4 -4z"/>
</g>
</svg>
