<?xml version="1.0" encoding="utf-8"?>
<!-- Generator: Adobe Illustrator 18.0.0, SVG Export Plug-In . SVG Version: 6.00 Build 0)  -->
<!DOCTYPE svg PUBLIC "-//W3C//DTD SVG 1.1//EN" "http://www.w3.org/Graphics/SVG/1.1/DTD/svg11.dtd">
<svg version="1.1" id="Capa_1" xmlns="http://www.w3.org/2000/svg" xmlns:xlink="http://www.w3.org/1999/xlink" x="0px" y="0px"
	 viewBox="0 0 571.8 144.7" enable-background="new 0 0 571.8 144.7" xml:space="preserve">
<polygon fill="#575756" points="569,96.1 520.3,96.1 520.3,1.7 519,1.7 515.3,1.7 514,1.7 514,99.8 515.3,99.8 569,99.8 570.2,99.8 
	570.2,96.1 "/>
<polygon fill="#575756" points="513.1,100.7 513.1,0.7 521.2,0.7 521.2,95.2 571.1,95.2 571.1,100.7 "/>
<path fill="#575756" d="M168.5,11.1L191,60.3h-45L168.5,11.1z M166.8,0l-46.2,100.7h7.1l15.9-34.9h50l16,34.9h8.4L171.7,0H166.8z"/>
<path fill="#575756" d="M451.3,11.1l22.5,49.2h-45L451.3,11.1z M449.5,0l-46.2,100.7h7.1l15.9-34.9h50l16,34.9h8.4L454.4,0H449.5z"
	/>
<g>
	<path fill="#575756" d="M309.4,104c-3.7,0-6.3-0.8-6.4-0.8c-0.4-0.1-11.5-3.1-25.2-23.9c-11.8-17.9-19.7-27-29.8-27h-0.9v-0.9
		c0-1.1,0.7-2.5,4.1-2.5c2.8,0,6.3,0.9,7.2,1.1c0.1,0,0.3,0,0.5,0c1.9,0,7.4,1.3,16.3,13c1,1.3,2.3,3.3,4,5.8
		c4.5,6.8,11.4,17.1,18.4,23.4c5.9,5.2,12.3,8.5,18.3,9.3l0.1,1.8C313.8,103.7,311.6,104,309.4,104"/>
	<path fill="#575756" d="M252.7,46.8c8.6,0,15.3-1.8,19.9-5.3c4.6-3.5,7-8.6,7-15c0-6.3-2.4-11.4-7.1-14.9c-4.6-3.5-11.4-5.3-20-5.3
		h-15.7v40.5H252.7z M228.6,100.7V0.7h26.6c10.7,0,18.9,2.3,24.6,6.9c5.7,4.6,8.4,10.7,8.4,18.7c0,11.5-6.2,19.4-18.9,24.1l-1.5,0.5
		c-2.3,0.7-4.5,1.2-6.5,1.3c-1.7,0.2-3.4,0.2-5.2,0.2c-1,0-1.9,0-2.6-0.1c-0.7-0.1-1.4-0.1-2.1-0.1l-0.1-0.5l-0.1,0.4
		c-0.5,0-1.1,0-1.6,0h-12.9v48.4H228.6z"/>
	<path fill="#575756" d="M355.8,102c-15.4,0-27.3-4.1-35.4-12.2c-7.9-8-11.8-19.5-11.7-34.1l0-55h8.1v57.9c0,6.2,1.9,37.1,39.5,37.1
		l0.6,0c2.5,0,11.4-0.4,19.7-5.1c10.6-6,16-16.6,16-31.5V0.7h6.7v57.2c0.1,0.6,2.1,18.4-9.3,31.3C382.7,97.7,371.2,102,355.8,102"/>
	<path d="M7.2,123.4c-1.6,0-3,0.2-3.9,0.5v8.8c0.7,0.1,1.9,0.2,3,0.2c4.8,0,7.3-1.9,7.3-4.7C13.6,125,11.3,123.4,7.2,123.4 M6.4,135
		c-1.1,0-2.4-0.1-3.1-0.2v9.5H0v-22c1.9-0.8,4.3-1.2,7.1-1.2c6.2,0,9.7,2.7,9.7,7C16.8,132.1,13.1,135,6.4,135"/>
	<path d="M29.5,123.3c-1.6,0-3.2,0.2-4.2,0.6v8.4h3.6c4.3,0,7-1.2,7-4.5C35.8,125.1,33.8,123.3,29.5,123.3 M36.9,144.3l-4.2-7.4
		c-0.9-1.7-2.3-2.6-4.6-2.6h-2.8v10h-3.1v-21.9c1.9-0.8,4.6-1.2,7.3-1.2c6.3,0,9.6,2.6,9.6,6.5c0,3.6-2.7,5.4-6.3,5.9v0.1
		c1.4,0.6,2.4,1.7,3.2,3.1l4.4,7.7H36.9z"/>
	<path d="M54.5,123.6c-4.7,0-7.2,4.1-7.2,9.3c0,5.3,2.4,9.3,7.2,9.3c4.7,0,7.2-4.1,7.2-9.3C61.7,127.7,59.3,123.6,54.5,123.6
		 M54.5,144.7c-6.9,0-10.4-5.3-10.4-11.8c0-6.5,3.4-11.8,10.4-11.8c6.9,0,10.4,5.3,10.4,11.8C64.9,139.4,61.5,144.7,54.5,144.7"/>
</g>
<polygon points="70.7,121.5 70.7,144.3 73.9,144.3 73.9,133.8 83.7,133.8 83.7,131.5 73.9,131.5 73.9,123.9 84.5,123.9 84.5,121.5 
	"/>
<polygon points="89.8,121.5 89.8,144.3 103.9,144.3 103.9,142 93,142 93,133.8 103,133.8 103,131.5 93,131.5 93,123.9 103.9,123.9 
	103.9,121.5 "/>
<g>
	<path d="M114.8,144.7c-2.5,0-5-0.5-6.5-1.2l1.1-2.4c1.2,0.6,3.3,1.1,5.3,1.1c3.4,0,5.9-1.4,5.9-4c0-2.3-2.4-3.4-4.9-4.3
		c-3.4-1.3-7.1-2.8-7.1-6.6c0-3.8,3.4-6.2,8.4-6.2c2.5,0,4.6,0.5,5.9,1.2l-1.1,2.2c-1-0.5-2.9-1.1-4.7-1.1c-3,0-5.2,1.4-5.2,3.7
		c0,2.3,2.7,3.4,5.2,4.4c3.2,1.2,6.8,2.7,6.8,6.5C123.9,142.1,120.2,144.7,114.8,144.7"/>
	<path d="M134.6,144.7c-2.5,0-5-0.5-6.5-1.2l1.1-2.4c1.2,0.6,3.3,1.1,5.3,1.1c3.4,0,5.9-1.4,5.9-4c0-2.3-2.4-3.4-4.9-4.3
		c-3.4-1.3-7.1-2.8-7.1-6.6c0-3.8,3.4-6.2,8.4-6.2c2.5,0,4.6,0.5,5.9,1.2l-1.1,2.2c-1-0.5-2.9-1.1-4.7-1.1c-3,0-5.2,1.4-5.2,3.7
		c0,2.3,2.7,3.4,5.2,4.4c3.2,1.2,6.8,2.7,6.8,6.5C143.7,142.1,140,144.7,134.6,144.7"/>
</g>
<rect x="149.5" y="121.5" width="3.2" height="22.8"/>
<g>
	<path d="M169,123.6c-4.7,0-7.2,4.1-7.2,9.3c0,5.3,2.4,9.3,7.2,9.3c4.7,0,7.2-4.1,7.2-9.3C176.2,127.7,173.7,123.6,169,123.6
		 M169,144.7c-6.9,0-10.4-5.3-10.4-11.8c0-6.5,3.4-11.8,10.4-11.8c6.9,0,10.4,5.3,10.4,11.8C179.4,139.4,176,144.7,169,144.7"/>
	<path d="M202.1,144.3l-12.4-16.7c-0.9-1.2-1.6-2.5-1.6-2.5H188c0,0,0.1,1.4,0.1,2.8v16.5h-2.8v-22.8h3.2l12.2,16.4
		c0.9,1.1,1.6,2.5,1.6,2.5h0.1c0,0,0-1.5,0-2.9v-16h2.8v22.8H202.1z"/>
	<path d="M221.9,126.4c-0.5-1.2-0.8-2.6-0.8-2.6H221c0,0-0.3,1.4-0.8,2.6l-3.8,9.2h9.3L221.9,126.4z M229.2,144.3l-2.8-6.7h-10.8
		l-2.7,6.7h-3.4l9.7-22.8h3.7l9.7,22.8H229.2z"/>
</g>
<polygon points="237.1,121.5 237.1,144.3 250.5,144.3 250.5,142 240.4,142 240.4,121.5 "/>
<g>
	<path d="M271.6,144.7c-2.5,0-5-0.5-6.5-1.2l1.1-2.4c1.2,0.6,3.3,1.1,5.3,1.1c3.4,0,5.9-1.4,5.9-4c0-2.3-2.4-3.4-4.9-4.3
		c-3.4-1.3-7.1-2.8-7.1-6.6c0-3.8,3.4-6.2,8.4-6.2c2.5,0,4.6,0.5,5.9,1.2l-1.1,2.2c-1-0.5-2.9-1.1-4.7-1.1c-3,0-5.2,1.4-5.2,3.7
		c0,2.3,2.7,3.4,5.2,4.4c3.2,1.2,6.8,2.7,6.8,6.5C280.7,142.1,277,144.7,271.6,144.7"/>
</g>
<polygon points="300.4,121.5 289.8,132.1 289.7,132.1 289.7,121.5 286.5,121.5 286.5,144.3 289.7,144.3 289.7,132.7 289.8,132.7 
	300.6,144.3 304.5,144.3 293.2,132.4 304.2,121.5 "/>
<rect x="308.8" y="121.5" width="3.2" height="22.8"/>
<g>
	<path d="M335.6,144.3l-12.4-16.7c-0.9-1.2-1.6-2.5-1.6-2.5h-0.1c0,0,0.1,1.4,0.1,2.8v16.5h-2.8v-22.8h3.2l12.2,16.4
		c0.9,1.1,1.6,2.5,1.6,2.5h0.1c0,0,0-1.5,0-2.9v-16h2.8v22.8H335.6z"/>
	<path d="M370.4,132.4l-5.5,0.8c-4.4,0.6-6.6,2.2-6.6,5c0,3.1,2.8,4.3,7.4,4.3c1.7,0,3.8-0.3,4.7-0.6V132.4z M373.4,132v11.5
		c-1.6,0.6-4.7,1.2-7.9,1.2c-6.5,0-10.5-2-10.5-6.3c0-3.3,2.6-5.3,6.1-6.2v-0.1c-3.4-0.8-4.9-2.8-4.9-5.1c0-3.5,3.2-5.8,8.5-5.8
		c2.3,0,4.6,0.5,6.1,1.2l-1,2.1c-1.2-0.6-3.1-1-4.8-1c-3.4,0-5.6,1.2-5.6,3.7c0,2.3,2.1,3.8,5.1,3.8c0.8,0,1.8,0,3.1-0.2l10.3-1.5
		l0.4,2.1L373.4,132z"/>
</g>
<polygon points="408.9,121.5 408.9,131.5 397.4,131.5 397.4,121.5 394.1,121.5 394.1,144.3 397.4,144.3 397.4,133.8 408.9,133.8 
	408.9,144.3 412.1,144.3 412.1,121.5 "/>
<g>
	<path d="M429,126.4c-0.5-1.2-0.8-2.6-0.8-2.6h-0.1c0,0-0.3,1.4-0.8,2.6l-3.8,9.2h9.3L429,126.4z M436.3,144.3l-2.8-6.7h-10.8
		l-2.7,6.7h-3.4l9.7-22.8h3.7l9.7,22.8H436.3z"/>
</g>
<rect x="444.2" y="121.5" width="3.2" height="22.8"/>
<g>
	<path d="M461.6,123.3c-1.6,0-3.2,0.2-4.2,0.6v8.4h3.6c4.3,0,7-1.2,7-4.5C467.9,125.1,465.9,123.3,461.6,123.3 M469,144.3l-4.2-7.4
		c-0.9-1.7-2.3-2.6-4.6-2.6h-2.8v10h-3.1v-21.9c1.9-0.8,4.6-1.2,7.3-1.2c6.3,0,9.6,2.6,9.6,6.5c0,3.6-2.7,5.4-6.3,5.9v0.1
		c1.4,0.6,2.4,1.7,3.2,3.1l4.4,7.7H469z"/>
	<path d="M497.9,144.7c-5.8,0-10.6-3.8-10.6-11.8c0-8,4.8-11.8,10.6-11.8c2.4,0,4.6,0.5,5.8,1.2l-1.1,2.2c-0.9-0.5-2.5-1-4.4-1
		c-4.2,0-7.6,2.9-7.6,9.3c0,6.4,3.4,9.4,7.6,9.4c1.9,0,3.5-0.5,4.4-1l1.1,2.2C502.5,144.2,500.4,144.7,497.9,144.7"/>
	<path d="M519.3,126.4c-0.5-1.2-0.8-2.6-0.8-2.6h-0.1c0,0-0.3,1.4-0.8,2.6l-3.8,9.2h9.3L519.3,126.4z M526.6,144.3l-2.8-6.7H513
		l-2.7,6.7h-3.4l9.7-22.8h3.7l9.7,22.8H526.6z"/>
	<path d="M541.8,123.3c-1.6,0-3.2,0.2-4.2,0.6v8.4h3.6c4.3,0,7-1.2,7-4.5C548.2,125.1,546.2,123.3,541.8,123.3 M549.3,144.3
		l-4.2-7.4c-0.9-1.7-2.3-2.6-4.6-2.6h-2.8v10h-3.1v-21.9c1.9-0.8,4.6-1.2,7.3-1.2c6.3,0,9.6,2.6,9.6,6.5c0,3.6-2.7,5.4-6.3,5.9v0.1
		c1.4,0.6,2.4,1.7,3.2,3.1l4.4,7.7H549.3z"/>
</g>
<polygon points="557.8,121.5 557.8,144.3 571.8,144.3 571.8,142 560.9,142 560.9,133.8 570.9,133.8 570.9,131.5 560.9,131.5 
	560.9,123.9 571.8,123.9 571.8,121.5 "/>
<rect x="0" y="0" fill="#8E9090" width="100.7" height="100.7"/>
<g>
	<defs>
		<rect id="SVGID_1_" x="0" y="0" width="100.7" height="100.7"/>
	</defs>
	<clipPath id="SVGID_2_">
		<use xlink:href="#SVGID_1_"  overflow="visible"/>
	</clipPath>
	<path clip-path="url(#SVGID_2_)" fill="#FFFFFF" d="M26.8,34.6v-46.8c-4.4,3-13.2,6.1-20.6,7.5l-1.5-7.2c9-1.6,20-6.4,24-11.1h7.2
		v57.5H26.8z"/>
	<path clip-path="url(#SVGID_2_)" fill="#FFFFFF" d="M27.6,51.8c0,0-1.9,3.8-4.2,7.3L7.7,82.8h19.8V60c0-3.9,0.3-8.1,0.3-8.1H27.6z
		 M36,89.6v13.6h-8.7V89.6H-0.6v-6.8l26.2-39.2H36v39.3h6.1v6.8H36z"/>
	<path clip-path="url(#SVGID_2_)" fill="#FFFFFF" d="M68.1-11.1c-6.9,0-11.3,5.4-11.3,11.5c0,7.4,5.1,11.4,12.6,11.4
		c3.2,0,7.5-0.8,10.2-1.9c0.3-1.9,0.5-3.7,0.5-5.6C80.1-4.5,76-11.1,68.1-11.1 M55.1,43l-2.4-7.6c12.7-3.1,20.9-10,24.8-18.6
		c-2.6,1-6.5,1.7-9.6,1.7c-12.6,0-20.4-6.7-20.4-18c0-10.4,8.1-19.1,20.5-19.1c14.4,0,21,10.6,21,23C89.2,23.1,75.3,38.2,55.1,43"/>
	<path clip-path="url(#SVGID_2_)" fill="#FFFFFF" d="M68.1,54.5c-6.9,0-11.3,5.4-11.3,11.5c0,7.4,5.1,11.4,12.6,11.4
		c3.2,0,7.5-0.8,10.2-1.9c0.3-1.9,0.5-3.7,0.5-5.6C80.1,61.1,76,54.5,68.1,54.5 M55.1,108.5l-2.4-7.6c12.7-3.1,20.9-10,24.8-18.6
		c-2.6,1-6.5,1.7-9.6,1.7c-12.6,0-20.4-6.7-20.4-18c0-10.4,8.1-19.1,20.5-19.1c14.4,0,21,10.6,21,23
		C89.2,88.6,75.3,103.7,55.1,108.5"/>
</g>
</svg>
