<?xml version="1.0" encoding="UTF-8"?>
<svg id="Livello_1" data-name="Livello 1" xmlns="http://www.w3.org/2000/svg" viewBox="0 0 115.83 115.67">
  <defs>
    <style>
      .cls-1 {
        stroke-width: .3px;
      }

      .cls-1, .cls-2, .cls-3 {
        fill: #fff;
      }

      .cls-1, .cls-3 {
        stroke: #fff;
        stroke-miterlimit: 10;
      }

      .cls-4, .cls-2 {
        stroke-width: 0px;
      }

      .cls-3 {
        stroke-width: .32px;
      }
    </style>
  </defs>
  <path class="cls-4" d="m58.06,114.5c31.31,0,56.69-25.38,56.69-56.69S89.37,1.11,58.06,1.11,1.37,26.5,1.37,57.81s25.38,56.69,56.69,56.69"/>
  <path class="cls-1" d="m89.85,57.67c.02,1.05.22,1.98.6,2.78.37.8.89,1.47,1.55,2.02.66.55,1.42.96,2.3,1.23.88.27,1.83.4,2.86.4.8,0,1.61-.08,2.44-.23.83-.15,1.59-.42,2.27-.81.68-.39,1.24-.9,1.69-1.53.45-.63.67-1.44.67-2.43s-.16-1.71-.49-2.32c-.33-.61-.78-1.11-1.35-1.49-.57-.39-1.25-.69-2.04-.91-.79-.22-1.62-.42-2.51-.58-.73-.16-1.45-.33-2.16-.49-.71-.16-1.36-.38-1.93-.65-.57-.27-1.04-.63-1.39-1.07-.35-.44-.53-1.03-.53-1.76,0-.63.16-1.17.47-1.62.32-.45.72-.81,1.21-1.09.49-.28,1.05-.48,1.67-.6.62-.12,1.24-.18,1.85-.18.75,0,1.45.09,2.11.26.66.18,1.22.45,1.7.81.48.36.86.84,1.13,1.42.27.59.4,1.29.4,2.11h1.34c0-1.03-.17-1.91-.51-2.64-.34-.73-.81-1.32-1.41-1.79-.6-.47-1.31-.81-2.13-1.02-.82-.21-1.7-.32-2.64-.32-.77,0-1.55.08-2.32.23-.77.15-1.47.4-2.09.76-.62.35-1.13.83-1.53,1.42-.4.6-.6,1.34-.6,2.23,0,1.24.3,2.19.91,2.83.61.65,1.38,1.14,2.3,1.49.93.35,1.92.61,2.99.79,1.07.18,2.06.4,2.99.69.93.28,1.69.68,2.3,1.2.61.52.91,1.28.91,2.28,0,.77-.19,1.41-.56,1.92-.38.5-.85.9-1.42,1.18-.57.28-1.19.47-1.86.58-.67.11-1.3.16-1.88.16-.82,0-1.58-.12-2.29-.35-.7-.23-1.32-.58-1.85-1.04s-.95-1.01-1.28-1.65c-.33-.64-.52-1.39-.56-2.23h-1.34Zm-17.22-6.13c.3-1,.75-1.88,1.34-2.65.59-.77,1.31-1.39,2.18-1.85.87-.46,1.86-.69,2.99-.69s2.12.23,2.99.69c.87.46,1.59,1.07,2.18,1.85.59.77,1.03,1.66,1.34,2.65.3,1,.46,2.03.46,3.11s-.15,2.11-.46,3.11c-.3,1-.75,1.88-1.34,2.65-.59.77-1.31,1.39-2.18,1.85-.87.46-1.86.69-2.99.69s-2.12-.23-2.99-.69c-.87-.46-1.59-1.07-2.18-1.85-.59-.77-1.03-1.66-1.34-2.65-.3-1-.46-2.03-.46-3.11s.15-2.11.46-3.11m-1.25,6.77c.36,1.15.9,2.15,1.6,3.01.7.86,1.57,1.53,2.6,2.04,1.03.5,2.21.76,3.55.76s2.52-.25,3.55-.76c1.03-.5,1.9-1.18,2.6-2.04.7-.86,1.24-1.86,1.6-3.01.36-1.15.54-2.37.54-3.66s-.18-2.5-.54-3.64c-.36-1.14-.9-2.14-1.6-3.01-.7-.87-1.57-1.55-2.6-2.06-1.03-.5-2.21-.76-3.55-.76s-2.52.25-3.55.76c-1.03.5-1.9,1.19-2.6,2.06-.7.87-1.24,1.87-1.6,3.01-.36,1.14-.54,2.35-.54,3.64s.18,2.51.54,3.66m-3.01-7.1c-.09-1.01-.35-1.89-.77-2.65-.42-.76-.97-1.39-1.63-1.88-.67-.49-1.43-.86-2.29-1.11-.86-.25-1.78-.37-2.76-.37-1.34,0-2.52.25-3.55.74-1.03.49-1.9,1.16-2.6,2-.7.84-1.24,1.83-1.6,2.95-.36,1.12-.54,2.32-.54,3.58s.16,2.48.47,3.64c.32,1.16.81,2.18,1.48,3.08.67.89,1.52,1.6,2.57,2.13,1.04.53,2.3.79,3.78.79.96,0,1.87-.15,2.74-.46.87-.3,1.64-.74,2.32-1.32.68-.57,1.24-1.28,1.69-2.13.44-.84.74-1.8.88-2.88h-1.34c-.12.82-.35,1.58-.7,2.27-.35.69-.8,1.28-1.35,1.77-.55.49-1.18.88-1.9,1.16-.71.28-1.49.42-2.34.42-1.17,0-2.19-.21-3.06-.63-.87-.42-1.59-1.01-2.18-1.78-.59-.76-1.02-1.66-1.3-2.69-.28-1.03-.42-2.16-.42-3.37,0-1.03.15-2.03.46-3.01.3-.97.75-1.84,1.34-2.6.59-.76,1.31-1.37,2.18-1.83.87-.46,1.86-.69,2.99-.69.82,0,1.59.11,2.3.32.71.21,1.34.52,1.88.91.54.4.98.9,1.32,1.51.34.61.54,1.31.62,2.11h1.34Zm-30.79-12.62v9.14h.07c.61-.94,1.43-1.62,2.48-2.06,1.04-.43,2.13-.65,3.25-.65.91,0,1.82.19,2.71.56.89.38,1.69.95,2.41,1.72.71.77,1.29,1.76,1.74,2.97.45,1.21.67,2.64.67,4.31s-.22,3.1-.67,4.31c-.45,1.21-1.03,2.2-1.74,2.97-.71.77-1.52,1.35-2.41,1.72-.89.37-1.79.56-2.71.56-1.34,0-2.53-.21-3.59-.63-1.05-.42-1.85-1.14-2.39-2.14h-.07v2.32h-4.75v-25.1h4.99Zm8.08,13.81c-.16-.7-.42-1.32-.77-1.86-.35-.54-.79-.97-1.32-1.28-.53-.32-1.17-.47-1.92-.47s-1.36.16-1.9.47c-.54.32-.98.74-1.34,1.28-.35.54-.61,1.16-.77,1.86-.16.7-.25,1.44-.25,2.21s.08,1.48.25,2.18c.16.7.42,1.32.77,1.86.35.54.8.97,1.34,1.28.54.32,1.17.47,1.9.47s1.39-.16,1.92-.47c.53-.32.97-.74,1.32-1.28.35-.54.61-1.16.77-1.86.16-.7.25-1.43.25-2.18s-.08-1.51-.25-2.21m-28.15-13.81v9.14h.07c.61-.94,1.43-1.62,2.48-2.06,1.04-.43,2.13-.65,3.25-.65.91,0,1.82.19,2.71.56.89.38,1.69.95,2.41,1.72.71.77,1.29,1.76,1.74,2.97.45,1.21.67,2.64.67,4.31s-.22,3.1-.67,4.31c-.45,1.21-1.03,2.2-1.74,2.97-.72.77-1.52,1.35-2.41,1.72-.89.37-1.79.56-2.71.56-1.34,0-2.53-.21-3.59-.63-1.05-.42-1.85-1.14-2.39-2.14h-.07v2.32h-4.75v-25.1h4.99Zm8.08,13.81c-.16-.7-.42-1.32-.77-1.86-.35-.54-.79-.97-1.32-1.28s-1.17-.47-1.92-.47-1.36.16-1.9.47c-.54.32-.98.74-1.34,1.28-.35.54-.61,1.16-.77,1.86-.16.7-.25,1.44-.25,2.21s.08,1.48.25,2.18c.16.7.42,1.32.77,1.86.35.54.8.97,1.34,1.28.54.32,1.17.47,1.9.47s1.39-.16,1.92-.47.97-.74,1.32-1.28c.35-.54.61-1.16.77-1.86.16-.7.25-1.43.25-2.18s-.08-1.51-.25-2.21"/>
  <path class="cls-3" d="m97.67,72.34c.13-.42.33-.78.6-1.11.26-.32.59-.58.99-.77.39-.19.85-.29,1.38-.29s.98.1,1.38.29c.39.19.72.45.99.77.26.32.46.69.6,1.11.13.42.2.85.2,1.3s-.07.88-.2,1.3c-.13.42-.33.79-.6,1.11-.27.32-.6.58-.99.76-.39.19-.85.28-1.38.28s-.98-.09-1.38-.28c-.39-.19-.73-.44-.99-.76-.27-.32-.46-.69-.6-1.11-.13-.42-.2-.85-.2-1.3s.07-.88.2-1.3m.81,2.28c.09.32.22.62.41.87.18.26.42.47.71.62.29.16.64.24,1.04.24s.75-.08,1.04-.24c.29-.16.53-.37.71-.62.18-.26.32-.55.41-.87s.13-.65.13-.99-.04-.66-.13-.98-.22-.62-.41-.87c-.19-.26-.42-.47-.71-.62-.29-.16-.63-.24-1.04-.24s-.75.08-1.04.24c-.29.16-.53.37-.71.62s-.32.55-.41.87c-.09.32-.13.65-.13.98s.04.66.13.99m-11.45-1.29c.18-.03.35-.09.49-.18.14-.09.25-.21.33-.36.08-.15.12-.35.12-.59,0-.33-.09-.6-.28-.81-.19-.21-.48-.31-.9-.31h-2.18v2.3h1.83c.2,0,.4-.02.58-.05m-.18-3c.63,0,1.12.15,1.47.46.35.31.53.73.53,1.27,0,.4-.09.75-.27,1.05-.18.3-.47.51-.87.62v.02c.19.04.35.1.47.18.12.09.22.19.29.31.07.12.12.25.16.4.03.15.06.3.08.46.01.16.02.32.03.49,0,.17.02.33.05.49.02.16.06.31.11.46.05.15.12.27.21.38h-.98c-.06-.07-.1-.16-.12-.28-.02-.12-.04-.25-.04-.39,0-.14-.01-.3-.02-.47,0-.17-.02-.33-.06-.49-.02-.16-.06-.31-.09-.46-.04-.14-.1-.27-.18-.38-.08-.11-.19-.19-.31-.26-.13-.06-.3-.1-.52-.1h-2.15v2.82h-.88v-6.6h3.11Zm-13.98,0c.67,0,1.17.17,1.51.51.34.34.51.82.51,1.44s-.17,1.1-.51,1.44c-.34.35-.85.51-1.51.51h-2.02v2.7h-.88v-6.6h2.9Zm-.3,3.16c.5,0,.86-.1,1.1-.31.23-.21.35-.51.35-.91s-.12-.7-.35-.9c-.23-.21-.6-.31-1.1-.31h-1.72v2.42h1.72Zm-10.02.15c.12-.12.26-.18.42-.18s.3.06.42.18c.12.12.18.26.18.42,0,.15-.06.28-.18.41-.12.12-.25.19-.41.19s-.3-.06-.42-.18c-.12-.12-.18-.26-.18-.42s.06-.3.18-.42m-8.19-.31c.18-.03.35-.09.49-.18s.25-.21.33-.36c.08-.15.12-.35.12-.59,0-.33-.09-.6-.28-.81-.19-.21-.48-.31-.9-.31h-2.18v2.3h1.83c.2,0,.4-.02.58-.05m-.18-3c.63,0,1.12.15,1.47.46.35.31.53.73.53,1.27,0,.4-.09.75-.27,1.05-.18.3-.47.51-.87.62v.02c.19.04.35.1.47.18.12.09.22.19.29.31.07.12.12.25.16.4.03.15.06.3.08.46.01.16.02.32.03.49,0,.17.02.33.05.49.02.16.06.31.11.46.05.15.12.27.21.38h-.98c-.06-.07-.1-.16-.12-.28-.02-.12-.04-.25-.04-.39,0-.14-.01-.3-.02-.47s-.02-.33-.06-.49c-.02-.16-.06-.31-.09-.46-.04-.14-.1-.27-.18-.38-.08-.11-.18-.19-.31-.26-.13-.06-.3-.1-.52-.1h-2.15v2.82h-.88v-6.6h3.11Zm-12.36,6.6h-.88v-6.6h.88v6.6Zm-11.91-6.6l2.58,6.6h-.97l-.72-1.99h-2.79l-.74,1.99h-.9l2.57-6.6h.97Zm.61,3.88l-1.1-3.08h-.02l-1.12,3.08h2.24Zm-16.95-3.88v2.84h3.48v-2.84h.88v6.6h-.88v-3.02h-3.48v3.02h-.88v-6.6h.88Z"/>
  <path class="cls-2" d="m103.84,43.73c.11-.26.27-.48.47-.67.2-.19.42-.34.69-.45.26-.11.54-.16.83-.16s.57.05.83.16c.26.11.49.26.68.45.19.19.35.42.46.67.11.26.17.54.17.84s-.06.59-.17.85c-.11.26-.27.49-.46.68-.19.19-.42.34-.68.45-.26.11-.54.16-.83.16s-.57-.05-.83-.16c-.26-.11-.49-.26-.69-.45-.2-.19-.35-.42-.47-.68-.11-.26-.17-.55-.17-.85s.06-.58.17-.84m.35,1.57c.09.22.21.42.37.58.16.16.34.29.56.39.21.09.45.14.7.14s.48-.05.69-.14c.21-.09.4-.22.56-.39.16-.16.28-.36.37-.58.09-.22.13-.47.13-.73s-.04-.49-.13-.71c-.09-.22-.21-.41-.37-.57-.16-.16-.34-.29-.56-.38-.21-.09-.44-.14-.69-.14s-.49.05-.7.14c-.22.09-.4.22-.56.38-.16.16-.28.35-.37.57-.09.22-.13.46-.13.71s.05.51.13.73m1.76-1.97c.3,0,.52.06.66.18.14.12.21.3.21.54,0,.22-.06.39-.19.49-.13.11-.28.17-.47.19l.71,1.1h-.42l-.68-1.07h-.41v1.07h-.39v-2.5h.97Zm-.17,1.11c.09,0,.17,0,.25,0,.08,0,.15-.02.21-.05.06-.03.11-.07.15-.12.04-.06.05-.13.05-.23,0-.08-.02-.15-.05-.2-.03-.05-.07-.09-.13-.11-.05-.03-.11-.04-.18-.05-.07-.01-.13-.01-.2-.01h-.51v.79h.41Z"/>
</svg>