<?xml version="1.0" standalone="no"?>
<!DOCTYPE svg PUBLIC "-//W3C//DTD SVG 20010904//EN"
 "http://www.w3.org/TR/2001/REC-SVG-20010904/DTD/svg10.dtd">
<svg version="1.0" xmlns="http://www.w3.org/2000/svg"
 width="70.000000pt" height="67.000000pt" viewBox="0 0 70.000000 67.000000"
 preserveAspectRatio="xMidYMid meet">

<g transform="translate(0.000000,67.000000) scale(0.100000,-0.100000)"
fill="#000000" stroke="none">
<path d="M135 646 c-37 -16 -53 -35 -65 -75 -12 -42 5 -97 36 -118 l25 -16
-29 -14 c-61 -29 -84 -133 -41 -187 37 -47 68 -56 189 -56 l110 0 0 240 0 240
-97 0 c-58 -1 -110 -6 -128 -14z m205 -100 c0 -106 0 -106 -78 -106 -76 1
-135 16 -154 40 -38 47 -10 142 45 153 12 2 59 5 105 6 l82 1 0 -94z m0 -236
l0 -110 -97 0 c-80 0 -104 4 -131 20 -62 38 -68 122 -12 173 29 26 35 27 135
27 l105 0 0 -110z"/>
<path d="M380 420 c0 -153 4 -240 10 -240 6 0 10 15 10 34 l0 34 34 -34 c31
-31 39 -34 95 -34 56 0 63 3 95 35 120 120 26 350 -128 311 -14 -3 -41 -20
-61 -37 l-35 -31 0 101 c0 61 -4 101 -10 101 -6 0 -10 -87 -10 -240z m230 55
c65 -62 58 -211 -12 -259 -13 -9 -43 -16 -72 -16 -43 0 -53 4 -81 35 -53 55
-58 139 -13 213 41 67 123 79 178 27z"/>
<path d="M20 130 c0 -6 118 -10 335 -10 217 0 335 4 335 10 0 6 -118 10 -335
10 -217 0 -335 -4 -335 -10z"/>
<path d="M50 51 c0 -21 5 -31 16 -31 11 0 14 8 12 27 -4 39 -28 42 -28 4z"/>
<path d="M94 65 c-9 -22 3 -45 23 -44 15 0 15 2 3 7 -17 8 -20 33 -5 44 6 5 5
8 -3 8 -7 0 -15 -7 -18 -15z"/>
<path d="M233 73 c-7 -2 -13 -14 -13 -24 0 -12 -4 -17 -11 -14 -6 4 -8 13 -6
19 3 7 -1 13 -9 13 -8 0 -14 -9 -14 -19 0 -11 4 -17 9 -13 5 3 12 1 15 -3 3
-5 18 -9 33 -8 21 1 28 6 29 21 1 15 0 16 -3 3 -3 -10 -8 -18 -13 -18 -16 0
-22 21 -10 35 13 16 12 16 -7 8z"/>
<path d="M284 69 c-4 -7 1 -16 11 -21 14 -8 15 -12 4 -19 -9 -6 -10 -9 -2 -9
19 0 24 17 8 30 -8 7 -12 16 -9 21 3 5 3 9 0 9 -3 0 -8 -5 -12 -11z"/>
<path d="M360 50 c0 -19 5 -30 14 -30 22 0 28 17 16 40 -16 29 -30 25 -30 -10z
m25 -10 c3 -5 1 -10 -4 -10 -6 0 -11 5 -11 10 0 6 2 10 4 10 3 0 8 -4 11 -10z"/>
<path d="M410 50 c0 -22 5 -30 18 -29 10 0 12 3 5 6 -17 6 -17 40 0 46 7 3 5
6 -5 6 -13 1 -18 -7 -18 -29z"/>
<path d="M530 50 c0 -22 5 -30 18 -29 10 0 12 3 5 6 -17 6 -17 40 0 46 7 3 5
6 -5 6 -13 1 -18 -7 -18 -29z"/>
<path d="M587 73 c9 -3 9 -11 -3 -29 -16 -23 -15 -24 7 -24 19 0 21 2 9 10
-12 7 -12 12 -2 22 17 17 15 28 -5 27 -11 0 -13 -3 -6 -6z"/>
<path d="M631 54 c-6 -15 -9 -29 -6 -32 3 -4 9 5 12 18 6 22 7 23 14 4 5 -12
8 -14 8 -4 0 8 -3 21 -7 28 -6 9 -12 5 -21 -14z"/>
<path d="M141 48 c-1 -21 4 -28 17 -28 11 0 13 3 6 8 -7 4 -14 16 -17 27 -4
15 -5 14 -6 -7z"/>
<path d="M451 48 c-1 -21 4 -28 17 -28 11 0 13 3 6 8 -7 4 -14 16 -17 27 -4
15 -5 14 -6 -7z"/>
<path d="M491 48 c-1 -21 4 -28 17 -28 11 0 13 3 6 8 -7 4 -14 16 -17 27 -4
15 -5 14 -6 -7z"/>
</g>
</svg>
