<?xml version="1.0" standalone="no"?>
<!DOCTYPE svg PUBLIC "-//W3C//DTD SVG 20010904//EN"
 "http://www.w3.org/TR/2001/REC-SVG-20010904/DTD/svg10.dtd">
<svg version="1.0" xmlns="http://www.w3.org/2000/svg"
 width="577.000000pt" height="577.000000pt" viewBox="0 0 577.000000 577.000000"
 preserveAspectRatio="xMidYMid meet">

<g transform="translate(0.000000,577.000000) scale(0.100000,-0.100000)"
fill="#000000" stroke="none">
<path d="M140 2890 l0 -2730 2733 2 2732 3 3 2728 2 2727 -2735 0 -2735 0 0
-2730z m1630 580 l0 -80 -312 2 -313 3 -3 64 c-2 35 -1 70 2 77 4 11 64 14
316 14 l310 0 0 -80z m735 0 l0 -75 -213 -3 -212 -2 2 -233 3 -232 213 -3 213
-2 -2 -75 -2 -75 -288 0 -289 0 0 390 0 390 288 -2 287 -3 0 -75z m313 -77 l3
-153 179 0 179 0 3 153 3 152 78 3 77 3 0 -391 0 -390 -80 0 -80 0 0 155 0
155 -180 0 -180 0 0 -155 0 -155 -80 0 -80 0 0 390 0 391 78 -3 77 -3 3 -152z
m1302 -233 l0 -390 -315 0 -315 0 0 383 c0 211 3 387 7 390 3 4 145 7 315 7
l308 0 0 -390z m790 310 l0 -80 -240 0 -240 0 0 -75 0 -75 240 0 240 0 0 -235
0 -235 -315 0 -315 0 0 75 0 75 238 2 237 3 3 78 3 77 -241 0 -240 0 0 235 0
235 315 0 315 0 0 -80z m-3920 -155 l0 -75 -80 0 -80 0 0 75 0 75 80 0 80 0 0
-75z m780 -155 l0 -80 -312 2 -313 3 -3 64 c-2 35 -1 70 2 77 4 11 64 14 316
14 l310 0 0 -80z m-780 -155 l0 -75 -80 0 -80 0 0 75 0 75 80 0 80 0 0 -75z
m780 -160 l0 -75 -315 0 -315 0 0 75 0 75 315 0 315 0 0 -75z m-520 -390 l0
-165 90 0 c89 0 90 0 90 -25 l0 -25 -145 0 -145 0 0 190 0 190 55 0 55 0 0
-165z m1200 -25 l0 -190 -50 0 -50 0 0 190 0 190 50 0 50 0 0 -190z m1097 65
c35 -65 68 -124 73 -129 7 -7 10 35 10 122 l0 132 40 0 40 0 0 -190 0 -190
-52 0 -53 0 -70 133 -70 132 -3 -132 -3 -133 -44 0 -45 0 0 190 0 191 57 -3
56 -3 64 -120z m1363 100 c0 -25 -1 -25 -84 -25 l-84 0 -4 -50 c-1 -28 -1 -55
0 -60 2 -6 41 -10 88 -10 83 0 84 0 84 -25 0 -24 -2 -24 -87 -27 l-88 -3 0
-40 c-1 -65 -1 -65 91 -65 83 0 84 0 84 -25 l0 -25 -135 0 -134 0 -3 186 c-2
102 -1 188 1 190 2 2 64 4 138 4 l133 0 0 -25z"/>
<path d="M3650 3155 l0 -236 158 3 157 3 3 233 2 232 -160 0 -160 0 0 -235z"/>
</g>
</svg>
