<?xml version="1.0" standalone="no"?>
<!DOCTYPE svg PUBLIC "-//W3C//DTD SVG 20010904//EN"
 "http://www.w3.org/TR/2001/REC-SVG-20010904/DTD/svg10.dtd">
<svg version="1.0" xmlns="http://www.w3.org/2000/svg"
 width="291.000000pt" height="97.000000pt" viewBox="0 0 291.000000 97.000000"
 preserveAspectRatio="xMidYMid meet">

<g transform="translate(0.000000,97.000000) scale(0.100000,-0.100000)"
fill="#000000" stroke="none">
<path d="M686 825 c-187 -66 -207 -307 -35 -405 64 -36 172 -35 247 3 l52 27
0 100 0 100 -101 0 -100 0 3 -42 c3 -43 3 -43 46 -46 36 -3 42 -6 42 -27 0
-26 -17 -35 -66 -35 -74 0 -114 43 -114 121 0 33 7 48 34 75 40 40 81 44 139
15 l37 -19 35 42 34 41 -22 17 c-29 23 -111 48 -156 48 -20 -1 -54 -7 -75 -15z"/>
<path d="M110 615 l0 -215 160 0 160 0 0 50 0 50 -105 0 -105 0 0 35 0 35 95
0 95 0 0 50 0 50 -95 0 c-95 0 -95 0 -95 25 l0 25 105 0 105 0 0 55 0 55 -160
0 -160 0 0 -215z"/>
<path d="M1144 643 c-43 -103 -79 -192 -79 -197 0 -12 97 -48 105 -39 3 4 24
53 45 108 21 55 45 116 53 135 l14 34 28 -64 c24 -57 26 -66 13 -77 -13 -10
-13 -19 -3 -63 7 -30 17 -50 24 -47 6 2 41 14 79 26 37 13 67 28 66 34 0 7
-33 84 -73 172 l-72 160 -60 3 -61 3 -79 -188z"/>
<path d="M1600 615 l0 -215 165 0 165 0 0 55 0 55 -100 0 -100 0 0 160 0 160
-65 0 -65 0 0 -215z"/>
<path d="M2040 615 l0 -215 165 0 165 0 0 55 0 55 -105 0 -105 0 0 160 0 160
-60 0 -60 0 0 -215z"/>
<path d="M2480 615 l0 -215 161 0 160 0 -3 53 -3 52 -102 3 -103 3 0 29 0 30
90 0 90 0 0 50 0 50 -90 0 -90 0 0 30 0 30 100 0 100 0 0 50 0 50 -155 0 -155
0 0 -215z"/>
<path d="M850 190 c-43 -43 -11 -120 49 -120 28 0 57 21 45 33 -3 3 -16 2 -29
-3 -33 -13 -58 8 -53 45 3 27 7 30 38 32 55 2 56 3 36 18 -27 21 -62 19 -86
-5z"/>
<path d="M1000 190 c-43 -43 -11 -120 50 -120 63 0 93 75 47 118 -29 27 -71
28 -97 2z m84 -26 c18 -47 -14 -85 -54 -64 -20 10 -28 58 -13 73 13 13 61 7
67 -9z"/>
<path d="M1172 198 c-25 -25 -14 -56 23 -68 19 -6 35 -15 35 -20 0 -16 -18
-20 -44 -10 -34 13 -45 -6 -12 -21 29 -14 71 -5 80 16 9 25 -4 43 -40 55 -42
14 -45 34 -4 28 34 -5 51 9 29 23 -20 12 -53 11 -67 -3z"/>
<path d="M1294 196 c-10 -25 1 -119 14 -124 8 -2 12 10 12 40 l1 43 20 -25 21
-24 19 24 19 25 0 -42 c0 -32 4 -43 15 -43 12 0 15 14 15 70 0 80 -14 92 -48
39 l-19 -31 -22 31 c-24 34 -39 39 -47 17z"/>
<path d="M1474 196 c-3 -7 -4 -38 -2 -67 l3 -54 54 -3 c40 -2 52 0 49 10 -3 7
-21 14 -41 16 -50 4 -51 32 -2 32 19 0 35 5 35 10 0 6 -16 10 -35 10 -24 0
-35 5 -35 15 0 11 11 15 40 15 29 0 40 4 40 15 0 20 -98 22 -106 1z"/>
<path d="M1610 195 c0 -8 9 -15 20 -15 18 0 20 -7 20 -56 0 -73 24 -70 28 4 3
44 6 52 23 52 10 0 19 7 19 15 0 12 -13 15 -55 15 -42 0 -55 -3 -55 -15z"/>
<path d="M1760 140 c0 -40 4 -70 10 -70 6 0 10 30 10 70 0 40 -4 70 -10 70 -6
0 -10 -30 -10 -70z"/>
<path d="M1849 192 c-45 -37 -17 -122 41 -122 32 0 68 24 52 34 -6 4 -20 2
-30 -3 -14 -7 -25 -6 -40 5 -44 30 -16 81 38 71 35 -7 49 8 21 22 -29 16 -56
13 -82 -7z"/>
<path d="M1998 199 c-33 -19 -15 -69 23 -69 22 0 34 -19 21 -32 -7 -7 -17 -6
-30 1 -15 8 -23 8 -28 0 -16 -27 64 -40 86 -14 19 23 8 49 -28 64 -40 18 -42
35 -2 29 32 -5 43 15 14 26 -22 8 -36 7 -56 -5z"/>
</g>
</svg>
