<svg xmlns="http://www.w3.org/2000/svg" fill="none" viewBox="0 0 283 121" height="121" width="283">
<path fill="#46231E" d="M36.356 104.73C40.2362 108.571 44.9217 110.491 50.4126 110.491C53.1763 110.491 55.7875 109.95 58.2523 108.863C60.717 107.781 62.8707 106.296 64.7192 104.413C66.5678 102.53 68.0321 100.337 69.1181 97.8264C70.1979 95.3159 70.7409 92.6562 70.7409 89.8412V81.856C64.9572 87.1816 58.1791 89.8412 50.4126 89.8412C42.0848 89.8412 34.9955 86.8584 29.1325 80.8866C23.2695 74.9149 20.3411 67.694 20.3411 59.2117C20.3411 50.7294 23.2695 43.5646 29.1325 37.5928C35.0321 31.5837 42.1214 28.5823 50.4126 28.5823C58.1791 28.5823 64.9511 31.2419 70.7409 36.5674V28.5823H80.539V89.8412C80.539 94.0233 79.7336 97.9693 78.1291 101.679C76.5245 105.389 74.3465 108.639 71.6011 111.429C68.8557 114.225 65.6649 116.431 62.0288 118.047C58.3865 119.663 54.5124 120.471 50.4065 120.471C42.2678 120.471 35.325 117.618 29.5779 111.914L36.356 104.73ZM50.4126 79.9172C53.1763 79.9172 55.7875 79.3766 58.2523 78.2891C60.717 77.2079 62.8707 75.7227 64.7192 73.8398C66.5678 71.9569 68.0321 69.7633 69.1181 67.2528C70.1979 64.7423 70.7409 62.064 70.7409 59.2117C70.7409 56.3595 70.1979 53.7371 69.1181 51.2266C68.0321 48.7161 66.5678 46.5225 64.7192 44.6396C62.8707 42.7567 60.717 41.2715 58.2523 40.1903C55.7875 39.109 53.1763 38.5622 50.4126 38.5622C47.6489 38.5622 44.9888 39.1028 42.5424 40.1903C40.0959 41.2715 37.9484 42.7567 36.0998 44.6396C34.2512 46.5225 32.7931 48.7161 31.7315 51.2266C30.67 53.7371 30.1331 56.3967 30.1331 59.2117C30.1331 62.0267 30.6639 64.7423 31.7315 67.2528C32.7931 69.7633 34.2512 71.9569 36.0998 73.8398C37.9484 75.7227 40.0959 77.2079 42.5424 78.2891C44.9888 79.3704 47.6123 79.9172 50.4126 79.9172Z"></path>
<path fill="#46231E" d="M136.202 89.6691C127.874 89.6691 120.785 86.6863 114.922 80.7145C109.059 74.7427 106.131 67.5219 106.131 59.0396C106.131 50.5573 109.059 43.3924 114.922 37.4207C120.822 31.4116 127.911 28.4102 136.202 28.4102C143.969 28.4102 150.741 31.0698 156.531 36.3953V28.4102H166.329V89.6691H156.531V81.6839C150.741 87.0094 143.969 89.6691 136.202 89.6691ZM136.202 79.7451C138.966 79.7451 141.577 79.2045 144.042 78.117C146.507 77.0358 148.66 75.5506 150.509 73.6677C152.357 71.7848 153.822 69.5912 154.908 67.0807C155.988 64.5702 156.531 61.8919 156.531 59.0396C156.531 56.1873 155.988 53.565 154.908 51.0545C153.822 48.544 152.357 46.3504 150.509 44.4675C148.66 42.5846 146.507 41.0994 144.042 40.0182C141.577 38.9369 138.966 38.3901 136.202 38.3901C133.439 38.3901 130.779 38.9307 128.332 40.0182C125.886 41.0994 123.738 42.5846 121.889 44.4675C120.041 46.3504 118.583 48.544 117.521 51.0545C116.46 53.565 115.923 56.2246 115.923 59.0396C115.923 61.8546 116.454 64.5702 117.521 67.0807C118.583 69.5912 120.041 71.7848 121.889 73.6677C123.738 75.5506 125.886 77.0358 128.332 78.117C130.779 79.1983 133.402 79.7451 136.202 79.7451Z"></path>
<path fill="#46231E" d="M218.266 28.4102L190.263 79.7451H218.266V89.6691H173.631L201.635 38.3901H173.631V28.4102H218.266Z"></path>
<path fill="#46231E" d="M246.934 89.6691C238.606 89.6691 231.511 86.6863 225.654 80.7145C219.791 74.7427 216.862 67.5219 216.862 59.0396C216.862 50.5573 219.791 43.3924 225.654 37.4207C231.553 31.4116 238.643 28.4102 246.934 28.4102C251.04 28.4102 254.914 29.218 258.55 30.8337C262.192 32.4493 265.383 34.6554 268.129 37.4517C270.874 40.2481 273.046 43.4981 274.65 47.2017C276.255 50.9115 277.06 54.8575 277.06 59.0334C277.06 59.835 277.024 60.6491 276.951 61.488C276.877 62.3269 276.761 63.1782 276.615 64.0544H227.222C227.783 66.2977 228.668 68.367 229.882 70.2686C231.096 72.1701 232.572 73.8231 234.305 75.2337C236.044 76.6443 237.984 77.7442 240.131 78.5396C242.279 79.3412 244.548 79.7389 246.934 79.7389C248.837 79.7389 250.674 79.4717 252.449 78.9435C254.225 78.4091 255.872 77.6696 257.403 76.7188C258.935 75.7681 260.325 74.6371 261.576 73.3259C262.827 72.0147 263.882 70.5793 264.743 69.0195H275.437C274.431 71.9837 272.991 74.7303 271.124 77.2595C269.257 79.7886 267.085 81.976 264.596 83.8216C262.113 85.6672 259.368 87.1027 256.366 88.128C253.358 89.1533 250.216 89.6691 246.928 89.6691M227.216 54.0807H266.64C266.079 51.8747 265.176 49.8116 263.925 47.8915C262.674 45.9713 261.18 44.3059 259.441 42.9015C257.708 41.4971 255.774 40.391 253.645 39.5956C251.516 38.794 249.277 38.3963 246.928 38.3963C244.579 38.3963 242.328 38.794 240.18 39.5956C238.033 40.3972 236.093 41.4909 234.36 42.8767C232.621 44.2686 231.139 45.9216 229.906 47.8418C228.674 49.7619 227.777 51.8437 227.216 54.087"></path>
<path fill="#46231E" d="M141.285 103.053C117.405 103.053 98.1875 84.6844 98.1204 60.3809V0.470459H87.6085V59.0698C87.6756 89.2083 111.677 113.617 141.285 113.617V103.053Z"></path>
<path fill="#46231E" d="M277.014 32.9154V29.9077H278.533C278.813 29.9077 279.033 29.9326 279.179 29.9823C279.326 30.032 279.448 30.1252 279.539 30.2557C279.631 30.3924 279.674 30.554 279.674 30.7404C279.674 30.9082 279.637 31.0511 279.57 31.1692C279.503 31.2935 279.405 31.3867 279.283 31.4612C279.204 31.511 279.1 31.5482 278.966 31.5793C279.076 31.6166 279.155 31.6539 279.204 31.6912C279.24 31.716 279.289 31.772 279.35 31.8527C279.411 31.9335 279.454 31.9957 279.478 32.0392L279.918 32.9091H278.887L278.399 31.9895C278.338 31.8714 278.283 31.7968 278.234 31.7595C278.167 31.7098 278.093 31.6912 278.008 31.6912H277.929V32.9091H277.014V32.9154ZM277.929 31.1257H278.313C278.356 31.1257 278.435 31.1133 278.557 31.0822C278.618 31.0698 278.667 31.0387 278.704 30.989C278.74 30.9393 278.759 30.8833 278.759 30.815C278.759 30.7156 278.728 30.641 278.667 30.5913C278.606 30.5416 278.49 30.5167 278.325 30.5167H277.923V31.1257H277.929Z"></path>
<path fill="#46231E" d="M278.345 35.5235C276.166 35.5235 274.397 33.7214 274.397 31.503C274.397 29.2845 276.166 27.4824 278.345 27.4824C280.523 27.4824 282.292 29.2845 282.292 31.503C282.292 33.7214 280.523 35.5235 278.345 35.5235ZM278.345 28.5326C276.734 28.5326 275.428 29.8624 275.428 31.503C275.428 33.1435 276.734 34.4733 278.345 34.4733C279.955 34.4733 281.261 33.1435 281.261 31.503C281.261 29.8624 279.955 28.5326 278.345 28.5326Z"></path>
<path fill="#46231E" d="M14.051 46.019C15.0759 39.1897 20.2617 33.7212 26.93 32.4349C20.219 31.3909 14.8441 26.1027 13.5873 19.3044C12.5624 26.1338 7.37657 31.6022 0.708252 32.8823C7.41928 33.9263 12.7942 39.2145 14.051 46.0128" clip-rule="evenodd" fill-rule="evenodd"></path>
</svg>
