<?xml version="1.0" standalone="no"?>
<!DOCTYPE svg PUBLIC "-//W3C//DTD SVG 20010904//EN"
 "http://www.w3.org/TR/2001/REC-SVG-20010904/DTD/svg10.dtd">
<svg version="1.0" xmlns="http://www.w3.org/2000/svg"
 width="170.000000pt" height="91.000000pt" viewBox="0 0 170.000000 91.000000"
 preserveAspectRatio="xMidYMid meet">

<g transform="translate(0.000000,91.000000) scale(0.100000,-0.100000)"
fill="#000000" stroke="none">
<path d="M10 582 c0 -348 3 -369 70 -444 21 -24 62 -57 91 -73 l54 -30 733 -3
732 -3 0 336 c0 369 -1 374 -61 433 -43 43 -90 66 -157 81 -36 7 -274 11 -757
11 l-705 0 0 -308z m1487 272 c76 -26 128 -67 157 -126 l26 -52 0 -313 0 -313
-718 0 -718 0 -52 26 c-68 34 -134 108 -155 174 -14 44 -17 97 -17 336 l0 284
715 0 c633 0 720 -2 762 -16z"/>
<path d="M112 619 l3 -161 28 -24 c28 -24 30 -24 243 -24 l214 0 0 24 c0 14
-11 38 -24 53 l-24 28 -164 5 -163 5 -5 103 c-5 98 -6 105 -33 128 -15 13 -39
24 -53 24 l-25 0 3 -161z"/>
<path d="M710 636 c0 -89 4 -156 11 -169 16 -31 50 -57 77 -57 22 0 22 1 22
154 0 146 -1 156 -22 180 -13 15 -38 29 -55 32 l-33 7 0 -147z"/>
<path d="M990 635 c0 -158 7 -188 51 -211 57 -29 59 -25 59 106 0 66 3 120 8
120 4 0 45 -27 92 -60 47 -33 88 -60 91 -60 3 0 45 27 93 60 49 33 90 60 92
60 2 0 4 -36 4 -80 0 -91 12 -126 51 -146 59 -30 59 -32 59 171 l0 185 -42 0
c-35 0 -59 -11 -149 -71 l-107 -70 -108 70 c-91 60 -114 71 -151 71 l-43 0 0
-145z"/>
<path d="M90 333 c0 -14 8 -18 37 -18 l38 0 0 -72 0 -72 40 -25 39 -26 683 0
683 0 0 30 c0 22 -5 30 -17 30 -10 0 -42 9 -71 20 -33 13 -76 20 -118 20 -48
0 -65 3 -61 13 3 11 36 14 190 16 35 1 36 2 25 21 -12 18 -24 20 -130 20
l-118 0 0 -55 0 -55 -35 0 -36 0 3 68 3 67 130 5 c114 4 126 7 102 18 -22 9
-185 12 -707 12 -641 0 -680 -1 -680 -17z m378 -85 l3 -68 -36 0 c-31 0 -35 3
-35 25 l0 25 -105 0 c-87 0 -105 3 -105 15 0 12 18 15 105 15 l105 0 0 31 c0
28 2 30 33 27 l32 -3 3 -67z m445 0 l100 -63 -40 -3 c-28 -2 -52 4 -74 17 -27
17 -51 21 -113 21 -63 0 -77 3 -68 12 7 7 33 12 59 12 42 -1 44 0 28 12 -28
21 -38 18 -119 -32 -64 -38 -82 -45 -118 -42 l-43 3 115 68 c92 54 121 67 143
63 16 -3 74 -34 130 -68z m227 2 l0 -70 -30 0 -30 0 0 70 0 70 30 0 30 0 0
-70z"/>
</g>
</svg>
