<?xml version="1.0" encoding="UTF-8" standalone="no"?>
<!-- Created with Inkscape (http://www.inkscape.org/) -->

<svg
   xmlns:dc="http://purl.org/dc/elements/1.1/"
   xmlns:cc="http://creativecommons.org/ns#"
   xmlns:rdf="http://www.w3.org/1999/02/22-rdf-syntax-ns#"
   xmlns:svg="http://www.w3.org/2000/svg"
   xmlns="http://www.w3.org/2000/svg"
   version="1.1"
   width="892.91339"
   height="155.9055"
   id="svg3113">
  <defs
     id="defs3115">
    <clipPath
       id="clipPath3015">
      <path
         d="m 792.284,676.346 266.456,0 0,44.731 -266.456,0 0,-44.731 z"
         id="path3017" />
    </clipPath>
  </defs>
  <metadata
     id="metadata3118">
    <rdf:RDF>
      <cc:Work
         rdf:about="">
        <dc:format>image/svg+xml</dc:format>
        <dc:type
           rdf:resource="http://purl.org/dc/dcmitype/StillImage" />
        <dc:title></dc:title>
      </cc:Work>
    </rdf:RDF>
  </metadata>
  <g
     transform="translate(8.5350301,-442.24257)"
     id="layer1">
    <g
       transform="matrix(3.3244855,0,0,-3.3244855,-2638.9284,2843.0517)"
       id="g3011"
       style="fill:#00a679;fill-opacity:1">
      <g
         clip-path="url(#clipPath3015)"
         id="g3013"
         style="fill:#00a679;fill-opacity:1">
        <g
           transform="translate(837.0676,721.0769)"
           id="g3019"
           style="fill:#00a679;fill-opacity:1">
          <path
             d="M 0,0 C -6.527,-11.568 -12.472,-22.812 -18.612,-33.863 -25.526,-22.425 -31.731,-10.275 -36.901,0 l -1.679,0 c -0.647,-6.785 -4.524,-33.799 -6.204,-44.203 0.775,0.065 1.486,0.194 2.326,0.194 0.711,0 1.422,-0.129 2.262,-0.194 0,7.949 1.744,20.744 3.166,33.346 4.395,-8.401 8.919,-16.802 13.055,-25.332 l 3.554,-7.303 0.711,0 c 3.877,8.919 9.435,19.258 16.931,32.635 0.905,-6.398 2.197,-20.356 3.296,-33.346 0.969,0.065 2.003,0.194 3.037,0.194 0.97,0 1.875,-0.129 3.038,-0.194 C 4.847,-31.86 3.037,-15.962 1.357,0 L 0,0 z"
             id="path3021"
             style="fill:#00a679;fill-opacity:1;fill-rule:nonzero;stroke:none" />
        </g>
        <g
           transform="translate(855.5227,707.5719)"
           id="g3023"
           style="fill:#00a679;fill-opacity:1">
          <path
             d="m 0,0 3.705,0 4.811,-0.096 c 1.444,-0.097 2.887,-0.241 4.331,-0.529 -0.049,0.481 -0.145,0.962 -0.145,1.443 0,0.481 0.096,0.914 0.145,1.443 l -17.081,0 0,-32.765 17.369,0 c -0.048,0.481 -0.144,0.962 -0.144,1.443 0,0.481 0.096,0.915 0.144,1.444 C 11.643,-27.858 10.2,-28.002 8.709,-28.05 5.822,-28.146 2.935,-28.339 0,-28.243 l 0,14.049 7.458,0 c 1.443,0 2.839,-0.192 4.282,-0.24 -0.048,0.529 -0.145,0.962 -0.145,1.347 0,0.433 0.097,0.866 0.145,1.252 -1.443,-0.05 -2.839,-0.242 -4.282,-0.242 L 0,-12.077 0,0 z"
             id="path3025"
             style="fill:#00a679;fill-opacity:1;fill-rule:nonzero;stroke:none" />
        </g>
        <g
           transform="translate(877.4105,677.0677)"
           id="g3027"
           style="fill:#00a679;fill-opacity:1">
          <path
             d="m 0,0 9.382,0 c 5.1,0 10.441,0.096 14.53,3.657 3.609,3.176 6.062,7.506 6.062,14.194 0,4.57 -1.539,9.045 -5.147,12.027 -4.042,3.368 -8.901,2.887 -13.905,2.887 L 0,32.765 0,0 z m 4.234,30.841 c 2.069,0.048 4.089,0.192 6.063,0.192 10.777,0 14.963,-3.705 14.963,-13.904 0,-5.87 -1.732,-11.211 -6.929,-13.808 C 14.434,1.347 8.468,1.925 4.234,2.165 l 0,28.676 z"
             id="path3029"
             style="fill:#00a679;fill-opacity:1;fill-rule:evenodd;stroke:none" />
        </g>
        <g
           transform="translate(877.4105,677.0677)"
           id="g3031"
           style="fill:#00a679;fill-opacity:1">
          <path
             d="m 0,0 9.382,0 c 5.1,0 10.441,0.096 14.53,3.657 3.609,3.176 6.062,7.506 6.062,14.194 0,4.57 -1.539,9.045 -5.147,12.027 -4.042,3.368 -8.901,2.887 -13.905,2.887 L 0,32.765 0,0 z m 4.234,30.841 c 2.069,0.048 4.089,0.192 6.063,0.192 10.777,0 14.963,-3.705 14.963,-13.904 0,-5.87 -1.732,-11.211 -6.929,-13.808 C 14.434,1.347 8.468,1.925 4.234,2.165 l 0,28.676 z"
             id="path3033"
             style="fill:#00a679;fill-opacity:1;fill-rule:nonzero;stroke:none" />
        </g>
        <g
           transform="translate(915.6504,676.9235)"
           id="g3035"
           style="fill:#00a679;fill-opacity:1">
          <path
             d="M 0,0 C 0.673,0.048 1.395,0.144 2.117,0.144 2.791,0.144 3.464,0.048 4.234,0 l 0,32.91 C 3.464,32.862 2.791,32.765 2.117,32.765 1.395,32.765 0.673,32.862 0,32.91 L 0,0 z"
             id="path3037"
             style="fill:#00a679;fill-opacity:1;fill-rule:nonzero;stroke:none" />
        </g>
        <g
           transform="translate(930.0216,683.4192)"
           id="g3039"
           style="fill:#00a679;fill-opacity:1">
          <path
             d="m 0,0 c -0.193,-1.444 -0.433,-2.887 -0.913,-4.283 1.634,-1.78 5.484,-2.79 7.841,-2.79 6.544,0 11.884,4.09 11.884,10.97 0,10.248 -15.155,6.688 -15.155,15.541 0,3.416 2.742,5.629 6.062,5.629 2.838,0 4.956,-1.588 5.966,-4.186 l 0.482,0 c 0.384,1.347 0.721,2.694 1.299,3.945 -1.781,1.588 -4.572,2.31 -6.881,2.31 -5.774,0 -10.681,-3.031 -10.681,-9.238 0,-10.874 15.059,-6.929 15.059,-15.877 0,-3.802 -2.79,-7.025 -6.688,-7.025 -3.752,0 -5.918,1.925 -7.794,5.004 L 0,0 z"
             id="path3041"
             style="fill:#00a679;fill-opacity:1;fill-rule:nonzero;stroke:none" />
        </g>
        <g
           transform="translate(972.0686,691.9351)"
           id="g3043"
           style="fill:#00a679;fill-opacity:1">
          <path
             d="M 0,0 -10.585,0 -5.341,12.317 0,0 z m -3.609,18.62 -1.106,0 -15.012,-33.632 c 0.53,0.048 1.059,0.145 1.685,0.145 0.577,0 1.106,-0.097 1.779,-0.145 1.348,4.523 3.08,8.757 4.763,12.991 l 12.221,0 c 1.925,-4.378 3.657,-8.997 5.053,-12.991 0.817,0.048 1.636,0.145 2.549,0.145 0.82,0 1.589,-0.097 2.502,-0.145 L -3.609,18.62 z"
             id="path3045"
             style="fill:#00a679;fill-opacity:1;fill-rule:evenodd;stroke:none" />
        </g>
        <g
           transform="translate(972.0686,691.9351)"
           id="g3047"
           style="fill:#00a679;fill-opacity:1">
          <path
             d="M 0,0 -10.585,0 -5.341,12.317 0,0 z m -3.609,18.62 -1.106,0 -15.012,-33.632 c 0.53,0.048 1.059,0.145 1.685,0.145 0.577,0 1.106,-0.097 1.779,-0.145 1.348,4.523 3.08,8.757 4.763,12.991 l 12.221,0 c 1.925,-4.378 3.657,-8.997 5.053,-12.991 0.817,0.048 1.636,0.145 2.549,0.145 0.82,0 1.589,-0.097 2.502,-0.145 L -3.609,18.62 z"
             id="path3049"
             style="fill:#00a679;fill-opacity:1;fill-rule:nonzero;stroke:none" />
        </g>
        <g
           transform="translate(1016.4742,709.8331)"
           id="g3051"
           style="fill:#00a679;fill-opacity:1">
          <path
             d="m 0,0 c -0.481,-0.048 -0.913,-0.144 -1.347,-0.144 -0.482,0 -0.914,0.096 -1.347,0.144 l 0,-24.779 -0.482,0 L -26.03,0 l -1.876,0 0,-32.91 c 0.432,0.048 0.866,0.145 1.348,0.145 0.432,0 0.865,-0.097 1.347,-0.145 l 0,25.934 0.481,0 20.785,-22.998 c 1.009,-1.107 1.972,-2.262 2.501,-2.936 L 0,-32.91 0,0 z"
             id="path3053"
             style="fill:#00a679;fill-opacity:1;fill-rule:nonzero;stroke:none" />
        </g>
        <g
           transform="translate(1040.8091,691.9351)"
           id="g3055"
           style="fill:#00a679;fill-opacity:1">
          <path
             d="M 0,0 -10.585,0 -5.34,12.317 0,0 z m -3.609,18.62 -1.106,0 -15.011,-33.632 c 0.529,0.048 1.058,0.145 1.684,0.145 0.577,0 1.106,-0.097 1.779,-0.145 1.348,4.523 3.08,8.757 4.764,12.991 l 12.222,0 c 1.924,-4.378 3.655,-8.997 5.051,-12.991 0.819,0.048 1.636,0.145 2.549,0.145 0.819,0 1.589,-0.097 2.503,-0.145 L -3.609,18.62 z"
             id="path3057"
             style="fill:#00a679;fill-opacity:1;fill-rule:evenodd;stroke:none" />
        </g>
        <g
           transform="translate(1040.8091,691.9351)"
           id="g3059"
           style="fill:#00a679;fill-opacity:1">
          <path
             d="M 0,0 -10.585,0 -5.34,12.317 0,0 z m -3.609,18.62 -1.106,0 -15.011,-33.632 c 0.529,0.048 1.058,0.145 1.684,0.145 0.577,0 1.106,-0.097 1.779,-0.145 1.348,4.523 3.08,8.757 4.764,12.991 l 12.222,0 c 1.924,-4.378 3.655,-8.997 5.051,-12.991 0.819,0.048 1.636,0.145 2.549,0.145 0.819,0 1.589,-0.097 2.503,-0.145 L -3.609,18.62 z"
             id="path3061"
             style="fill:#00a679;fill-opacity:1;fill-rule:nonzero;stroke:none" />
        </g>
        <g
           transform="translate(1051.8253,707.3525)"
           id="g3063"
           style="fill:#00a679;fill-opacity:1">
          <path
             d="m 0,0 1.386,0 c 0.717,-0.032 1.067,-0.366 1.067,-0.988 0,-0.685 -0.542,-1.179 -1.418,-1.179 L 0,-2.167 0,0 z m 0,-2.645 0.367,0 0.749,-0.828 1.129,-1.354 c 0.192,-0.255 0.383,-0.51 0.591,-0.781 0.174,0.016 0.366,0.048 0.541,0.048 0.175,0 0.351,-0.032 0.542,-0.048 l -0.176,0.223 -0.446,0.494 -1.959,2.326 c 0.956,0.16 1.944,0.653 1.944,1.689 0,0.892 -0.637,1.354 -2.104,1.354 l -2.006,0 0,-6.086 c 0.127,0.016 0.27,0.048 0.413,0.048 0.128,0 0.272,-0.032 0.415,-0.048 l 0,2.963 z M 1.274,-7.44 c -2.629,0 -4.811,2.23 -4.811,4.875 0,2.629 2.182,4.86 4.811,4.86 2.629,0 4.765,-2.231 4.765,-4.86 0,-2.645 -2.136,-4.875 -4.765,-4.875 m 0,-0.797 c 3.124,0 5.64,2.533 5.64,5.672 0,3.123 -2.516,5.655 -5.64,5.655 -3.138,0 -5.687,-2.532 -5.687,-5.655 0,-3.139 2.549,-5.672 5.687,-5.672"
             id="path3065"
             style="fill:#00a679;fill-opacity:1;fill-rule:evenodd;stroke:none" />
        </g>
      </g>
    </g>
  </g>
</svg>
