<?xml version="1.0" standalone="no"?>
<!DOCTYPE svg PUBLIC "-//W3C//DTD SVG 20010904//EN"
 "http://www.w3.org/TR/2001/REC-SVG-20010904/DTD/svg10.dtd">
<svg version="1.0" xmlns="http://www.w3.org/2000/svg"
 width="2000.000000pt" height="328.000000pt" viewBox="0 0 2000.000000 328.000000"
 preserveAspectRatio="xMidYMid meet">

<g transform="translate(0.000000,328.000000) scale(0.100000,-0.100000)"
fill="#000000" stroke="none">
<path d="M19367 3264 c-128 -28 -235 -93 -273 -165 -32 -62 -3 -157 63 -205
98 -73 220 -108 373 -108 286 0 485 122 455 281 -10 54 -93 133 -171 163 -135
51 -308 64 -447 34z m360 -48 c28 -9 73 -31 99 -49 161 -107 111 -251 -111
-320 -100 -31 -262 -31 -360 0 -286 90 -269 301 30 379 67 18 273 12 342 -10z"/>
<path d="M19350 3041 l0 -141 55 0 55 0 0 55 0 55 39 0 c35 0 44 -6 86 -55
l47 -55 66 0 66 0 -54 55 c-29 30 -50 58 -46 62 4 5 22 13 39 19 40 13 67 56
51 81 -25 42 -79 55 -245 61 l-159 5 0 -142z m272 84 c23 -9 29 -30 14 -51
-10 -13 -32 -18 -95 -22 l-81 -5 0 48 0 48 73 -6 c39 -3 80 -8 89 -12z"/>
<path d="M1957 3005 c-161 -241 -364 -517 -534 -728 -57 -70 -103 -129 -103
-131 0 -3 51 -4 113 -3 l112 2 90 137 90 138 294 -3 293 -2 82 -136 81 -136
213 0 c116 0 212 3 212 6 0 3 -48 67 -106 141 -145 186 -350 465 -477 649
l-106 154 -97 1 -97 1 -60 -90z m116 -252 c48 -62 157 -227 157 -237 0 -3 -97
-6 -215 -6 -118 0 -215 2 -215 6 0 20 205 294 220 294 5 0 29 -26 53 -57z"/>
<path d="M11767 2905 c-158 -230 -316 -444 -460 -623 -59 -73 -107 -135 -107
-137 0 -8 216 -1 227 7 7 5 49 68 94 139 l83 129 292 0 292 0 83 -139 83 -138
213 0 c117 0 213 2 213 4 0 2 -63 86 -140 186 -169 220 -310 411 -447 611
l-103 149 -96 1 -96 1 -131 -190z m196 -167 c56 -76 147 -212 147 -222 0 -3
-97 -6 -215 -6 -118 0 -215 2 -215 5 0 23 203 295 220 295 4 0 33 -33 63 -72z"/>
<path d="M16210 3091 c-400 -34 -660 -151 -752 -339 -30 -60 -33 -75 -33 -157
0 -77 4 -98 27 -148 74 -157 291 -268 603 -308 151 -19 496 -17 633 4 307 48
508 152 593 309 32 60 34 68 34 163 0 93 -2 104 -31 160 -82 156 -269 257
-556 299 -127 19 -389 27 -518 17z m412 -114 c197 -64 293 -186 292 -372 -1
-200 -128 -333 -363 -380 -123 -25 -328 -17 -432 17 -129 42 -204 102 -260
208 -21 40 -24 58 -24 155 0 100 3 115 28 166 53 109 171 190 322 223 50 11
111 15 215 12 122 -3 157 -7 222 -29z"/>
<path d="M13 3018 l0 -57 237 6 237 6 6 -123 c13 -229 3 -582 -18 -680 l-6
-25 216 0 216 -1 -6 26 c-21 105 -31 481 -18 695 l6 108 236 -6 236 -6 -3 57
-4 57 -667 0 -668 0 0 -57z"/>
<path d="M3305 2765 c-62 -252 -111 -437 -160 -605 -4 -14 10 -16 100 -16
l105 0 0 36 c0 19 5 64 10 100 18 114 94 460 100 458 13 -6 318 -330 434 -460
l121 -138 52 0 51 0 113 128 c146 164 399 440 432 471 l26 24 5 -24 c19 -83
85 -466 91 -524 l7 -70 209 0 c115 0 209 2 209 5 0 3 -12 41 -26 85 -14 43
-61 241 -104 440 -44 198 -82 369 -84 380 -5 19 -13 20 -123 19 l-117 -1 -119
-139 c-139 -163 -335 -379 -405 -447 l-49 -48 -146 153 c-80 84 -210 227 -289
317 l-143 164 -112 1 -112 1 -76 -310z"/>
<path d="M5664 3065 c-2 -5 -42 -165 -89 -355 -48 -190 -100 -389 -116 -444
-16 -54 -29 -104 -29 -110 0 -7 33 -11 99 -12 l98 0 12 95 c13 95 85 449 99
485 7 15 33 -8 162 -145 86 -90 211 -226 279 -301 l123 -138 52 0 c51 0 53 1
102 58 174 203 503 562 515 562 4 0 10 -21 14 -47 4 -27 20 -118 37 -203 16
-85 35 -202 42 -260 l12 -104 210 -1 210 -1 -25 80 c-14 45 -64 254 -111 465
l-85 384 -118 1 -118 1 -83 -100 c-112 -135 -257 -297 -384 -430 l-105 -110
-80 85 c-147 158 -334 364 -415 459 l-81 95 -112 0 c-66 1 -113 -3 -115 -9z"/>
<path d="M7991 2800 l282 -275 -6 -145 c-4 -80 -9 -165 -13 -190 l-6 -45 212
0 211 0 -6 33 c-12 65 -22 238 -17 306 l5 69 130 134 c111 114 283 274 390
364 l28 24 -136 -1 -137 -1 -76 -98 c-41 -55 -124 -149 -183 -209 l-108 -111
-98 100 c-54 55 -142 149 -195 209 l-96 109 -232 1 -232 1 283 -275z"/>
<path d="M9915 3018 l0 -57 236 6 237 6 7 -108 c8 -111 0 -566 -11 -665 l-6
-55 212 0 211 0 -6 25 c-4 14 -9 200 -12 414 l-5 389 239 -6 238 -6 0 57 0 57
-670 0 -670 0 0 -57z"/>
<path d="M12943 2870 c117 -113 243 -234 281 -270 l68 -65 -5 -175 c-3 -96 -8
-184 -12 -195 -6 -20 -2 -20 205 -20 l211 0 -8 75 c-4 41 -8 132 -8 201 l0
125 90 97 c75 81 220 219 417 397 l39 35 -133 0 -133 0 -78 -100 c-43 -55
-124 -149 -181 -210 l-104 -110 -92 90 c-51 50 -140 144 -198 209 l-105 120
-233 0 -233 1 212 -205z"/>
<path d="M14447 2985 c10 -116 10 -634 0 -750 l-8 -90 490 0 491 0 0 59 0 59
-47 -6 c-27 -4 -154 -9 -285 -13 l-236 -7 -7 66 c-8 74 1 682 10 737 l7 35
-212 0 -211 0 8 -90z"/>
<path d="M17648 3005 c9 -91 9 -699 0 -790 l-8 -70 211 0 211 0 -6 45 c-3 25
-9 124 -13 220 l-6 174 34 -28 c19 -15 125 -114 237 -219 l202 -192 225 0
c123 0 221 3 217 7 -4 3 -119 104 -257 223 -137 119 -251 220 -253 224 -2 5
22 12 53 16 125 15 245 69 292 132 24 31 28 46 28 98 0 75 -27 117 -101 157
-117 63 -284 80 -739 76 l-335 -3 8 -70z m676 -35 c63 -30 86 -68 86 -143 0
-32 -5 -68 -11 -80 -38 -73 -120 -110 -274 -123 l-87 -7 4 174 c3 96 8 182 13
193 7 17 18 18 115 14 84 -3 116 -9 154 -28z"/>
<path d="M8185 1774 c-1472 -30 -2906 -152 -4195 -355 -880 -139 -1363 -260
-1715 -429 -245 -118 -404 -271 -405 -391 0 -77 90 -202 205 -284 259 -185
758 -302 1312 -308 l157 -2 15 27 c12 21 13 32 5 45 -10 16 -37 19 -240 24
-607 18 -1011 128 -1125 308 -35 55 -36 87 -4 150 72 143 361 284 748 366 319
67 807 151 1272 219 2699 396 5973 510 9220 320 1058 -61 2105 -151 3134 -269
199 -23 308 -32 314 -26 76 76 -2154 355 -3908 491 -883 68 -1257 85 -2210
100 -665 10 -2326 19 -2580 14z"/>
</g>
</svg>
