<?xml version="1.0" standalone="no"?>
<!DOCTYPE svg PUBLIC "-//W3C//DTD SVG 20010904//EN"
 "http://www.w3.org/TR/2001/REC-SVG-20010904/DTD/svg10.dtd">
<svg version="1.0" xmlns="http://www.w3.org/2000/svg"
 width="1773.000000pt" height="1023.000000pt" viewBox="0 0 1773.000000 1023.000000"
 preserveAspectRatio="xMidYMid meet">

<g transform="translate(0.000000,1023.000000) scale(0.100000,-0.100000)"
fill="#000000" stroke="none">
<path d="M5515 9713 c-68 -19 -206 -158 -313 -315 -117 -173 -251 -420 -357
-658 -21 -47 -38 -86 -39 -87 0 0 -59 -11 -131 -23 -276 -46 -596 -122 -1074
-254 -150 -42 -278 -76 -284 -76 -7 1 -25 11 -40 24 -27 22 -28 25 -18 63 6
23 36 75 66 116 31 42 69 108 85 146 16 39 65 127 110 197 180 276 172 404
-30 498 -93 44 -156 29 -216 -50 -16 -20 -44 -54 -62 -74 -17 -21 -46 -71 -63
-111 -45 -111 -129 -264 -241 -443 -183 -290 -226 -363 -282 -473 -78 -153
-129 -187 -385 -258 -141 -39 -207 -64 -251 -95 -16 -11 -43 -20 -62 -20 -60
0 -150 -29 -289 -95 -75 -35 -159 -70 -187 -78 -28 -9 -83 -31 -124 -50 -40
-19 -120 -52 -178 -72 -161 -56 -262 -109 -326 -168 l-56 -53 26 -38 c30 -45
32 -82 11 -203 -12 -66 -12 -89 -2 -125 12 -39 17 -44 62 -60 112 -38 234 -18
452 78 181 79 228 93 289 87 28 -3 84 2 128 11 107 22 178 21 226 -4 24 -12
40 -28 40 -38 0 -33 -67 -217 -158 -432 -49 -118 -104 -253 -120 -300 -17 -47
-66 -155 -110 -240 -193 -381 -383 -913 -453 -1268 -7 -37 -26 -87 -47 -120
-19 -31 -47 -93 -62 -137 -15 -44 -60 -159 -99 -256 -101 -250 -125 -346 -126
-489 0 -139 22 -221 86 -319 32 -47 53 -68 83 -81 67 -29 119 -33 183 -15 71
20 126 56 261 167 98 81 203 148 234 148 7 0 58 38 113 85 55 47 150 117 212
157 63 40 195 133 296 207 271 199 422 297 487 316 41 12 176 105 320 219 129
102 217 163 225 155 7 -8 -66 -258 -140 -479 -92 -278 -136 -430 -170 -591
-14 -68 -39 -166 -56 -218 -16 -52 -65 -232 -109 -400 -95 -371 -138 -512
-196 -656 -25 -60 -61 -164 -81 -230 -20 -66 -51 -172 -70 -235 -36 -120 -52
-254 -39 -325 l7 -38 30 44 c16 24 29 54 29 65 0 12 22 68 50 125 27 57 92
234 145 393 99 297 138 402 179 484 13 26 26 64 29 84 3 21 22 64 41 96 24 38
36 70 36 93 0 20 20 83 44 140 23 57 61 156 84 219 22 64 56 145 75 180 60
110 134 284 234 550 124 333 185 484 243 600 27 53 51 118 55 145 4 28 23 87
42 133 35 80 38 84 102 122 36 22 95 62 131 90 217 165 381 271 479 306 97 35
148 62 196 104 28 24 75 54 105 68 30 13 96 52 145 86 50 34 146 93 214 131
83 47 149 94 202 142 71 66 213 153 226 139 3 -2 0 -20 -6 -39 -7 -19 -13 -49
-15 -68 -7 -64 -40 -174 -114 -379 -150 -414 -723 -2162 -750 -2291 -11 -52
-53 -178 -92 -280 -69 -176 -120 -344 -120 -396 0 -13 -52 -173 -115 -356 -64
-182 -122 -359 -129 -392 -8 -33 -23 -87 -36 -119 -21 -59 -21 -118 0 -131 14
-8 73 97 144 258 36 82 91 197 121 255 30 59 55 110 55 114 0 20 125 355 265
714 85 216 155 397 155 401 0 3 25 47 55 97 73 121 120 238 201 496 92 295
152 439 228 545 12 17 32 64 45 105 13 41 67 163 121 270 53 107 107 226 120
264 12 38 40 100 62 138 55 98 126 254 278 618 72 173 159 373 193 443 l60
128 96 48 c53 27 173 94 266 150 223 134 385 211 445 211 19 0 60 -40 60 -60
0 -29 -135 -393 -414 -1114 -78 -202 -116 -312 -116 -339 0 -22 -13 -105 -29
-186 -47 -235 -47 -208 3 -256 57 -55 117 -75 243 -82 l103 -6 47 44 c27 25
91 65 143 91 93 46 134 76 176 129 11 15 51 43 90 62 101 51 188 116 377 281
203 177 267 226 294 226 49 0 62 -65 39 -195 -27 -154 -22 -188 40 -283 41
-60 76 -82 148 -89 44 -5 61 -1 111 25 107 53 186 120 406 341 119 119 272
270 341 336 69 66 190 188 269 272 141 148 145 151 175 142 47 -14 56 -44 48
-175 -5 -85 -4 -117 6 -129 7 -8 15 -53 19 -100 9 -111 23 -127 116 -133 56
-4 85 1 188 34 l122 39 70 74 c39 40 81 77 94 82 27 11 81 -5 81 -24 0 -11
-65 -136 -300 -572 -465 -863 -635 -1220 -830 -1740 -45 -121 -149 -386 -230
-590 -230 -574 -275 -706 -295 -861 -13 -100 -14 -137 -6 -166 7 -20 16 -40
21 -43 18 -11 76 15 107 48 36 39 175 285 238 422 80 174 103 211 218 348 66
79 132 171 168 233 13 23 50 77 81 120 31 43 87 134 124 202 47 88 75 127 95
138 16 8 47 41 69 74 23 33 50 66 62 73 11 6 61 73 111 147 274 409 572 775
1024 1262 90 97 178 197 195 223 17 25 41 53 54 62 13 8 49 47 80 86 32 40
132 148 223 240 153 155 216 207 255 207 27 0 55 -51 90 -164 37 -118 71 -169
125 -184 14 -4 100 -7 191 -7 149 1 175 3 264 28 99 27 264 93 315 125 14 9
40 28 58 44 18 15 89 54 158 87 90 43 141 75 179 111 29 27 61 50 72 50 31 1
101 36 163 84 116 90 188 111 266 82 49 -19 121 -101 276 -316 204 -283 329
-434 440 -529 56 -49 77 -61 116 -67 27 -3 55 -12 63 -19 31 -26 142 -76 222
-99 131 -38 253 -49 480 -43 185 4 226 9 463 51 353 63 491 83 681 99 193 16
218 27 316 139 35 39 86 96 115 127 55 60 73 95 73 141 0 37 -31 47 -95 31
-57 -14 -130 -14 -153 0 -14 9 -44 7 -128 -10 -309 -60 -544 -84 -829 -84
-289 0 -493 25 -704 89 -69 21 -98 36 -155 84 -91 73 -149 137 -177 192 -12
23 -62 81 -110 126 -147 138 -353 430 -408 577 -47 124 -74 175 -113 211 -34
33 -84 54 -125 54 -14 0 -85 -43 -173 -105 -82 -58 -258 -176 -392 -263 -134
-87 -292 -191 -351 -230 -60 -40 -115 -72 -122 -72 -6 0 -32 -17 -56 -38 -104
-89 -142 -102 -190 -63 l-24 20 24 46 c40 75 145 179 311 308 85 66 187 150
226 186 39 37 105 85 150 109 43 23 156 96 249 162 94 66 220 151 280 189 61
39 139 92 175 118 36 26 116 80 179 118 154 95 193 133 220 215 58 178 49 421
-18 493 -42 46 -52 48 -137 27 -161 -38 -272 -87 -569 -250 -202 -111 -438
-284 -806 -592 -287 -239 -476 -414 -809 -747 -173 -173 -355 -348 -405 -389
-216 -180 -942 -942 -1173 -1231 -51 -64 -98 -121 -105 -127 -35 -34 -106
-107 -138 -143 -42 -48 -89 -58 -89 -18 0 39 190 408 385 747 103 179 229 408
280 510 50 102 142 264 202 360 199 315 407 692 590 1066 90 185 95 199 89
243 -9 69 -68 180 -133 250 l-58 62 -40 -12 c-74 -21 -102 -46 -161 -147 -186
-316 -410 -595 -841 -1049 -160 -169 -181 -183 -217 -147 -9 8 -16 24 -16 35
0 48 36 183 90 343 33 96 69 214 80 262 12 49 34 113 50 143 17 30 30 63 30
73 0 9 21 57 46 106 60 114 57 135 -32 231 -80 86 -142 116 -218 106 -71 -9
-89 -24 -116 -96 -12 -35 -35 -75 -49 -89 -15 -14 -57 -83 -94 -153 -151 -287
-349 -565 -638 -892 -168 -191 -378 -404 -419 -425 -19 -10 -67 -52 -106 -93
-77 -81 -113 -98 -165 -77 -16 7 -29 15 -29 18 0 3 18 68 40 144 51 175 121
370 218 608 41 102 92 232 113 290 20 58 50 134 65 170 36 84 42 164 18 215
-27 57 -84 80 -204 80 -153 0 -148 4 -318 -286 -336 -572 -575 -912 -745
-1058 -48 -42 -100 -93 -114 -113 -14 -21 -60 -66 -102 -100 -42 -35 -120
-105 -173 -155 -89 -86 -100 -93 -137 -93 -31 0 -44 6 -60 26 -12 15 -21 35
-21 44 0 26 73 232 150 425 75 187 114 276 315 725 125 277 138 311 142 375 4
53 0 82 -14 119 -17 47 -21 50 -93 80 -66 27 -87 31 -172 31 -88 0 -99 -2
-122 -24 -14 -13 -35 -53 -47 -89 -12 -36 -32 -76 -44 -88 -31 -31 -104 -66
-265 -129 -152 -59 -205 -84 -265 -125 -22 -15 -58 -33 -80 -40 -22 -7 -109
-47 -192 -90 -84 -43 -153 -77 -153 -74 0 2 21 38 46 81 78 132 201 374 283
561 120 269 154 339 210 437 29 49 75 148 103 220 51 129 251 535 363 734 78
138 115 247 114 331 -1 94 -9 112 -54 133 -57 27 -79 50 -141 149 l-56 88 -70
0 c-38 0 -78 -5 -88 -10 -10 -6 -57 -61 -103 -123 -240 -321 -384 -578 -533
-953 -36 -93 -83 -207 -104 -254 -20 -47 -77 -191 -125 -320 -48 -129 -114
-291 -147 -360 -33 -69 -71 -161 -85 -205 -32 -103 -114 -305 -257 -633 l-114
-264 -51 -34 c-29 -20 -134 -78 -234 -131 -100 -52 -207 -110 -238 -129 -31
-19 -67 -34 -80 -34 -36 0 -117 -42 -184 -95 -63 -50 -144 -95 -169 -95 -9 0
-53 -24 -98 -53 -107 -69 -221 -133 -333 -190 -49 -24 -114 -61 -144 -81 -30
-21 -65 -36 -82 -36 l-29 0 26 58 c15 31 69 158 121 282 184 438 355 807 702
1520 106 217 210 431 231 475 53 109 119 222 281 481 161 258 259 432 319 564
23 52 61 136 85 185 54 115 85 214 85 275 0 47 -3 52 -73 124 -53 54 -91 84
-138 105 -63 30 -153 46 -194 34z m-912 -1529 c3 -4 -7 -33 -23 -65 -146 -288
-460 -1091 -545 -1391 -48 -170 -119 -370 -183 -513 -21 -49 -70 -173 -107
-275 -37 -102 -85 -225 -107 -275 -22 -49 -45 -110 -53 -135 -26 -92 -77 -216
-96 -236 -11 -12 -75 -50 -141 -85 -67 -36 -140 -83 -165 -106 -24 -24 -51
-43 -59 -43 -22 0 -73 -28 -119 -65 -62 -50 -107 -75 -139 -75 -20 0 -44 -15
-85 -52 -77 -71 -185 -140 -319 -204 -72 -35 -128 -70 -153 -95 -41 -41 -92
-68 -244 -130 -58 -24 -95 -47 -136 -86 -38 -36 -64 -53 -81 -53 -14 0 -50
-16 -79 -36 -113 -76 -143 -79 -171 -21 -15 32 -14 38 39 212 183 604 416
1252 713 1980 53 132 108 269 120 305 13 36 52 135 88 220 36 85 84 211 108
278 23 68 53 135 66 149 39 42 102 73 202 98 264 67 332 97 530 230 147 98
242 149 312 166 27 6 83 28 124 49 41 21 131 57 200 80 69 22 145 53 170 67
25 14 69 31 98 39 29 8 78 27 110 43 53 28 110 39 125 25z"/>
<path d="M6368 1321 c-82 -27 -138 -62 -196 -126 -75 -82 -97 -144 -96 -280 0
-91 4 -120 23 -168 32 -82 116 -167 196 -196 254 -95 515 -11 618 198 31 63
32 71 32 186 0 109 -2 125 -27 177 -50 108 -140 181 -263 213 -80 20 -215 19
-287 -4z m237 -70 c91 -42 144 -135 153 -267 9 -156 -40 -298 -126 -358 -45
-32 -126 -45 -198 -32 -53 10 -119 76 -144 143 -41 109 -36 274 11 384 22 49
75 107 124 132 41 22 131 21 180 -2z"/>
<path d="M8575 1324 c-100 -35 -155 -116 -155 -228 0 -117 45 -173 199 -251
50 -24 100 -58 116 -76 38 -45 32 -110 -14 -151 -27 -24 -40 -28 -94 -28 -80
0 -123 27 -148 93 -12 30 -39 37 -39 9 0 -10 -6 -42 -14 -72 -18 -68 -14 -73
74 -96 123 -31 260 -1 333 74 47 48 68 101 68 171 1 113 -46 171 -202 251 -54
28 -107 62 -118 76 -30 38 -28 104 2 132 62 58 175 43 212 -29 9 -17 21 -29
26 -27 6 2 19 28 29 58 17 50 17 55 2 67 -55 41 -198 55 -277 27z"/>
<path d="M9226 1324 c-96 -35 -156 -122 -156 -226 0 -113 45 -172 185 -243
113 -58 155 -99 155 -151 0 -44 -25 -88 -57 -103 -13 -6 -51 -11 -83 -11 -52
0 -64 4 -93 30 -19 16 -40 43 -47 60 -15 35 -40 40 -40 8 0 -13 -6 -46 -14
-75 -17 -63 -14 -66 75 -89 221 -57 431 84 405 273 -13 100 -58 147 -219 230
-100 52 -127 80 -127 133 0 118 181 145 240 36 7 -14 18 -26 24 -26 12 0 48
109 40 121 -2 4 -29 17 -60 28 -65 25 -169 27 -228 5z"/>
<path d="M10470 1321 c-108 -35 -182 -91 -239 -179 -74 -118 -82 -285 -19
-420 33 -71 112 -145 183 -171 254 -95 515 -11 618 198 31 63 32 71 32 186 0
109 -2 125 -27 177 -50 108 -140 181 -263 213 -80 20 -215 19 -285 -4z m235
-70 c55 -25 93 -66 124 -131 23 -49 26 -67 26 -170 0 -229 -79 -349 -235 -358
-88 -5 -129 9 -179 63 -55 59 -76 131 -75 260 0 163 55 283 153 335 47 25 133
26 186 1z"/>
<path d="M4620 928 l0 -398 94 0 93 0 -5 168 -5 169 87 6 c158 11 241 72 266
193 16 77 -1 143 -49 194 -52 55 -95 64 -303 65 l-178 0 0 -397z m275 318 c46
-19 66 -54 72 -125 5 -47 1 -68 -15 -103 -25 -50 -51 -69 -109 -78 l-43 -7 0
164 0 163 30 0 c17 0 46 -6 65 -14z"/>
<path d="M5345 928 l0 -398 95 0 95 0 -3 182 c-2 101 -1 180 1 178 2 -3 48
-83 102 -178 54 -96 103 -176 110 -178 6 -3 55 -3 108 -2 l96 3 -89 136 c-49
75 -103 162 -120 192 l-31 55 33 11 c19 6 50 24 69 41 109 89 93 272 -28 332
-45 22 -59 23 -243 23 l-195 0 0 -397z m270 322 c64 -14 85 -47 85 -132 0
-115 -32 -159 -129 -174 l-41 -7 0 162 c0 182 -6 172 85 151z"/>
<path d="M7155 928 l0 -398 92 0 93 0 -7 186 -6 185 131 -3 132 -3 0 51 0 51
-130 -5 -130 -5 0 89 c0 49 3 105 6 125 6 36 7 36 48 33 22 -2 80 -5 128 -8
l86 -4 -1 49 -2 50 -220 2 -220 2 0 -397z"/>
<path d="M7805 928 l0 -398 223 0 222 0 0 48 0 47 -132 0 -133 0 -3 138 -3
138 131 -3 130 -3 0 50 0 51 -130 -4 -130 -4 0 64 c0 36 3 92 6 125 l7 60 41
-3 c22 -2 81 -5 129 -8 l88 -4 -3 49 -3 50 -220 2 -220 2 0 -397z"/>
<path d="M9775 928 l0 -398 90 0 90 0 0 398 0 397 -90 0 -90 0 0 -397z"/>
<path d="M11279 1325 c0 0 -2 -115 -3 -255 -2 -140 -6 -319 -11 -397 l-8 -143
54 0 54 0 -2 277 -3 278 76 -80 c41 -44 154 -169 251 -277 l177 -198 46 0 47
0 6 363 c4 199 9 378 13 397 l6 35 -56 0 -55 0 5 -275 5 -275 -43 47 c-24 25
-136 149 -250 275 l-207 228 -50 0 c-28 0 -51 0 -52 0z"/>
<path d="M12357 1068 c-58 -145 -133 -325 -165 -400 l-59 -138 57 0 58 0 21
69 c12 39 30 90 41 115 l19 46 133 0 134 0 37 -115 38 -115 101 0 c76 0 99 3
95 13 -59 133 -171 409 -233 574 l-79 213 -46 0 -47 0 -105 -262z m164 -115
c21 -58 37 -108 35 -110 -2 -2 -46 -2 -99 -1 l-95 3 33 85 c62 161 65 167 76
147 6 -9 28 -65 50 -124z"/>
<path d="M13060 1325 c0 0 -1 -179 -3 -398 l-2 -397 223 0 222 0 0 48 0 48
-131 -4 -130 -4 2 352 2 352 -92 2 c-50 0 -91 1 -91 1z"/>
<path d="M14110 1325 c-1 0 -2 -179 -3 -398 l-2 -397 223 0 222 0 0 48 0 48
-130 -4 -130 -4 0 353 0 354 -90 0 c-49 0 -90 0 -90 0z"/>
<path d="M14765 928 l0 -398 90 0 90 0 0 398 0 397 -90 0 -90 0 0 -397z"/>
<path d="M15227 995 c-4 -181 -10 -360 -13 -397 l-7 -68 55 0 54 0 -4 278 -4
277 22 -20 c30 -26 291 -312 400 -437 84 -98 84 -98 131 -98 l46 0 7 323 c3
177 9 356 12 397 l7 75 -54 0 -54 0 3 -272 3 -272 -69 72 c-37 40 -150 162
-249 272 l-180 200 -50 0 -50 0 -6 -330z"/>
<path d="M16180 1325 c0 0 -1 -179 -3 -398 l-2 -397 223 0 222 0 0 48 0 48
-130 -4 -130 -4 0 141 0 142 128 -2 127 -1 0 48 0 49 -127 -4 -128 -3 0 125 0
126 53 -4 c28 -3 87 -7 130 -9 l77 -4 0 51 0 52 -220 0 c-121 0 -220 0 -220 0z"/>
</g>
</svg>
