<svg width="265" height="85" viewBox="0 0 265 85" fill="none" xmlns="http://www.w3.org/2000/svg">
<path d="M44.7297 19.7751H31.9004V22.6155H39.5144L30.6115 36.5428H44.1688V33.7383H36.0296L44.9326 19.7751H44.7297Z" fill="#14563E"/>
<path d="M49.8734 19.7751V36.5428H53.0241V19.7751H52.9047H49.8734Z" fill="#14563E"/>
<path d="M72.489 21.7081C71.9327 21.1289 71.2882 20.6415 70.5795 20.2641C69.423 19.6633 68.1352 19.3598 66.8321 19.3809C65.6938 19.3666 64.5648 19.587 63.5156 20.0285C62.4663 20.4699 61.5193 21.123 60.7337 21.9468C59.9252 22.7547 59.2885 23.7177 58.8619 24.7781C58.4353 25.8384 58.2276 26.9741 58.2513 28.1168C58.2319 29.2717 58.4437 30.4189 58.8741 31.4908C59.3045 32.5626 59.9448 33.5377 60.7575 34.3585C61.5358 35.1829 62.4761 35.8374 63.5194 36.2811C64.5627 36.7247 65.6865 36.9477 66.8202 36.9363C68.0971 36.9433 69.3586 36.6575 70.5079 36.1009C71.2486 35.7269 71.9318 35.2487 72.5367 34.6807V36.5424H75.6873V19.8344H72.5367L72.489 21.7081ZM71.8684 31.1481C71.3886 32.0101 70.6777 32.721 69.8157 33.2008C68.9506 33.6946 67.9714 33.9538 66.9753 33.9527C66.0017 33.9548 65.0454 33.6951 64.2066 33.2008C63.3457 32.6773 62.6377 31.9365 62.1539 31.0527C61.6457 30.175 61.3781 29.1787 61.3781 28.1646C61.3781 27.1504 61.6457 26.1542 62.1539 25.2765C62.6337 24.3951 63.3483 23.6639 64.2185 23.1641C65.0663 22.6705 66.0301 22.411 67.0111 22.4122C67.7546 22.3942 68.4937 22.5326 69.1803 22.8183C69.867 23.1041 70.486 23.5309 70.9972 24.0711C71.5247 24.6224 71.936 25.2742 72.2066 25.9877C72.4772 26.7011 72.6017 27.4617 72.5725 28.2242C72.5945 29.2433 72.3519 30.2508 71.8684 31.1481Z" fill="#14563E"/>
<path d="M104.246 21.7082C103.686 21.1286 103.037 20.6412 102.325 20.2642C101.169 19.6624 99.8805 19.3589 98.5773 19.381C97.4407 19.3661 96.3133 19.5864 95.2659 20.028C94.2185 20.4695 93.2737 21.1228 92.4908 21.9469C91.6737 22.7507 91.0282 23.712 90.5933 24.7725C90.1584 25.8331 89.9432 26.9708 89.9607 28.1169C89.9386 29.2722 90.1491 30.4201 90.5797 31.4924C91.0102 32.5646 91.652 33.5394 92.4669 34.3586C93.6983 35.6395 95.3022 36.4997 97.0505 36.8168C98.7988 37.1339 100.603 36.8917 102.205 36.1248C102.95 35.7512 103.637 35.2729 104.246 34.7046V36.5664H107.385V19.8584H104.246V21.7082ZM103.602 31.1482C103.13 32.0121 102.422 32.724 101.561 33.2009C100.695 33.6932 99.7164 33.9523 98.7205 33.9528C97.7469 33.9549 96.7906 33.6952 95.9518 33.2009C95.0843 32.6818 94.3715 31.9401 93.8871 31.0528C93.3871 30.1723 93.1242 29.1772 93.1242 28.1647C93.1242 27.1521 93.3871 26.157 93.8871 25.2766C94.359 24.4046 95.0592 23.6774 95.9128 23.1728C96.7663 22.6683 97.741 22.4054 98.7325 22.4123C99.474 22.396 100.211 22.5352 100.895 22.8209C101.58 23.1066 102.197 23.5325 102.707 24.0712C103.245 24.617 103.667 25.2667 103.946 25.9807C104.225 26.6947 104.355 27.4581 104.33 28.2243C104.35 29.2462 104.099 30.2552 103.602 31.1482Z" fill="#14563E"/>
<path d="M81.7977 19.7751V44.873H84.9364V19.7751H84.8171H81.7977Z" fill="#14563E"/>
<path d="M100.021 5.96729H40.3498C26.4344 5.96729 15.1207 16.1353 15.1207 28.6424C15.1207 41.1496 26.4344 51.3176 40.3498 51.3176H100.021C113.925 51.3176 125.25 41.1496 125.25 28.6424C125.25 16.1353 113.949 5.96729 100.021 5.96729ZM100.021 49.9213H40.3498C27.2221 49.9213 16.4812 40.3739 16.4812 28.6186C16.4812 16.8633 27.2221 7.32779 40.3498 7.32779H100.021C113.149 7.32779 123.89 16.8752 123.89 28.6186C123.89 40.3619 113.149 49.9213 100.021 49.9213Z" fill="#14563E"/>
<path d="M144.441 7.62601C144.412 7.41725 144.372 7.21011 144.321 7.00543C144.321 6.79061 144.178 6.38485 144.166 6.21777C144.186 6.09486 144.171 5.96904 144.125 5.85353C144.079 5.73802 144.003 5.6371 143.904 5.56138H143.844C143.702 5.45011 143.522 5.39796 143.342 5.41573C143.162 5.43351 142.995 5.51985 142.877 5.65686C142.555 6.02682 142.197 6.38485 141.827 6.75481L141.732 6.85029C141.363 7.19002 141.013 7.54852 140.682 7.92437C139.406 9.30202 138.377 10.8885 137.638 12.6146C137.31 13.4635 137.051 14.3376 136.863 15.2282C136.857 15.3275 136.857 15.4271 136.863 15.5265L136.755 15.2759C136.58 14.8874 136.429 14.4889 136.302 14.0825C136.135 13.617 136.015 13.1158 135.884 12.6384V12.4713C135.838 12.2268 135.838 11.9759 135.884 11.7314L135.956 11.3256C136.076 10.267 136.031 9.19621 135.824 8.15112C135.418 6.10622 134.53 4.18755 133.235 2.55394C132.663 1.7677 131.915 1.12685 131.051 0.683187C130.186 0.23952 129.23 0.00548549 128.258 0C126.935 0.00528573 125.646 0.422393 124.57 1.19343C123.866 1.67861 123.265 2.29936 122.804 3.01938C122.348 3.70508 122.024 4.47011 121.849 5.27496C121.701 6.06364 121.701 6.87314 121.849 7.66182C121.961 8.50065 122.25 9.30614 122.697 10.0248C123.205 10.8377 123.784 11.6044 124.427 12.3162C125.01 12.9657 125.663 13.55 126.372 14.0586C127.047 14.5405 127.776 14.941 128.544 15.252C129.311 15.5631 130.112 15.7796 130.931 15.8965C131.37 15.9466 131.788 16.1137 132.141 16.3803C132.493 16.6469 132.768 17.0032 132.936 17.4121C133.354 18.3072 133.748 19.2023 134.13 19.9303L134.523 20.8134C134.822 21.4937 135.132 22.1978 135.442 22.878L135.538 23.069C135.776 23.6721 136.11 24.2324 136.528 24.7279V24.7875C136.673 25.0125 136.864 25.2043 137.088 25.3503C137.312 25.4964 137.565 25.5933 137.829 25.6349C138.06 25.6343 138.283 25.5542 138.462 25.4081C138.737 25.1467 138.945 24.8235 139.07 24.4653L139.13 24.334C139.148 24.2931 139.167 24.2532 139.19 24.2147C139.5 23.6299 139.822 23.0809 140.144 22.5558C140.277 22.3426 140.424 22.1392 140.586 21.9472L140.717 21.804L141.028 21.3982C141.738 20.3702 142.345 19.2749 142.842 18.1282C143.661 16.2627 144.188 14.2823 144.405 12.2565C144.506 11.2255 144.546 10.1894 144.524 9.1536C144.512 8.67623 144.489 8.18693 144.441 7.62601ZM137.96 23.606C137.963 23.6498 137.963 23.6936 137.96 23.7373L137.853 23.9521C137.856 23.9958 137.856 24.0397 137.853 24.0834L137.71 23.9283C137.66 23.863 137.604 23.803 137.543 23.7492C137.246 23.3527 137.001 22.9195 136.815 22.4603L136.743 22.3052L135.741 20.0735L135.49 19.4887C135.156 18.7368 134.738 17.794 134.297 16.8393C134.034 16.2279 133.624 15.6909 133.103 15.2759C132.566 14.8719 131.932 14.6166 131.265 14.536C128.353 14.1063 125.978 12.3878 123.985 9.27295C123.307 8.13964 123.086 6.79038 123.368 5.49993C123.649 4.20948 124.412 3.07488 125.501 2.32719C126.351 1.73057 127.363 1.40597 128.401 1.39631C129.155 1.40508 129.895 1.58985 130.565 1.9359C131.234 2.28194 131.813 2.77967 132.256 3.38934C133.427 4.8496 134.244 6.5611 134.643 8.38981C134.786 9.31518 134.786 10.2571 134.643 11.1824C134.648 11.2977 134.648 11.4132 134.643 11.5285C134.552 11.9493 134.552 12.3847 134.643 12.8055L134.702 13.0561C134.822 13.5454 134.953 14.0467 135.12 14.536C135.275 14.9775 135.442 15.4072 135.621 15.8129C135.8 16.2187 135.824 16.3022 135.92 16.5529L135.991 16.7199C136.234 17.3676 136.529 17.9942 136.874 18.5936C136.952 18.7261 137.072 18.829 137.215 18.886C137.357 18.9431 137.515 18.951 137.662 18.9086C137.81 18.8662 137.939 18.7759 138.03 18.6519C138.121 18.5279 138.168 18.3772 138.163 18.2237C138.163 18.1401 138.163 18.0208 138.163 17.9014C138.169 17.8419 138.169 17.782 138.163 17.7224V17.5792C138.163 17.3405 138.163 17.1018 138.163 16.8751V16.7677C138.17 16.6604 138.17 16.5528 138.163 16.4455C138.183 16.1368 138.223 15.8298 138.283 15.5265C138.447 14.7104 138.687 13.9114 138.999 13.1397C139.669 11.5468 140.614 10.0844 141.791 8.81944C142.066 8.52109 142.352 8.2466 142.71 7.88857H142.794L142.985 7.4828C142.99 7.57024 142.99 7.65792 142.985 7.74536C142.985 8.25853 143.045 8.71204 143.056 9.1536C143.083 10.1298 143.044 11.1067 142.937 12.0775C142.755 13.9604 142.284 15.804 141.541 17.5434C141.109 18.6178 140.569 19.6455 139.93 20.6105C139.841 20.7389 139.745 20.8624 139.643 20.9805L139.56 21.0879C139.348 21.3306 139.157 21.59 138.987 21.8636C138.653 22.3768 138.319 22.9974 137.96 23.606Z" fill="#14563E"/>
<path d="M127.184 3.54423C127.051 3.50934 126.911 3.50934 126.778 3.54423C126.365 3.65332 126.005 3.90754 125.764 4.26039C125.523 4.61323 125.417 5.04109 125.465 5.46565C125.488 5.60893 125.563 5.73886 125.675 5.83112C125.787 5.92339 125.929 5.97166 126.074 5.9669C126.173 5.98405 126.274 5.98405 126.372 5.9669C126.776 5.82905 127.115 5.54906 127.327 5.17923C127.541 4.78888 127.592 4.33021 127.47 3.90226C127.457 3.82294 127.424 3.74827 127.374 3.68553C127.324 3.62279 127.258 3.57411 127.184 3.54423Z" fill="#14563E"/>
<path d="M170.219 25.79C170.119 24.4655 169.732 23.1787 169.085 22.0187C168.71 21.4709 168.228 21.004 167.669 20.646C167.11 20.288 166.484 20.0462 165.829 19.9349C165.175 19.8235 164.504 19.845 163.858 19.9979C163.212 20.1509 162.603 20.4323 162.068 20.8253C161.251 21.4774 160.542 22.2548 159.967 23.1286C159.812 22.2455 160.481 20.1689 159.037 20.145C158.904 20.1419 158.772 20.1651 158.648 20.2133C158.525 20.2615 158.412 20.3338 158.316 20.4259C158.221 20.518 158.145 20.6282 158.092 20.75C158.04 20.8719 158.012 21.0029 158.01 21.1356C157.855 29.5275 158.154 37.9216 158.905 46.2812C158.92 46.4287 158.968 46.5711 159.044 46.6984C159.12 46.8257 159.223 46.9347 159.346 47.0177C159.469 47.1008 159.609 47.1559 159.755 47.1792C159.902 47.2024 160.052 47.1933 160.194 47.1524C160.731 46.9375 160.624 46.5079 160.66 45.9589C160.715 44.3665 160.671 42.7722 160.528 41.1852C160.401 39.2041 160.294 37.2151 160.206 35.2181C160.461 35.5006 160.741 35.7602 161.042 35.9938C161.891 36.5979 162.911 36.9156 163.953 36.9008C165.031 36.9024 166.087 36.596 166.997 36.0177C168.628 34.8986 169.754 33.1847 170.135 31.2439C170.48 29.4446 170.508 27.599 170.219 25.79ZM168.178 30.7785C167.912 32.2225 167.094 33.5064 165.899 34.3588C165.356 34.7146 164.722 34.9041 164.073 34.9041C163.424 34.9041 162.789 34.7146 162.247 34.3588C161.197 33.4825 160.435 32.3095 160.063 30.9933C159.991 27.7591 160.493 24.7875 163.237 22.6393C163.526 22.3719 163.868 22.1688 164.24 22.0432C164.613 21.9176 165.008 21.8725 165.399 21.9109C165.791 21.9492 166.169 22.0701 166.511 22.2657C166.852 22.4612 167.148 22.7268 167.379 23.0451C167.861 23.9588 168.15 24.9624 168.226 25.9929C168.483 27.5791 168.467 29.1977 168.178 30.7785Z" fill="#14563E" stroke="white" stroke-width="0.13" stroke-miterlimit="10"/>
<path d="M188.86 36.9845C188.071 36.9524 187.302 36.7293 186.618 36.3343C185.934 35.9394 185.356 35.3844 184.934 34.717C184.152 33.4182 183.682 31.9557 183.561 30.4445C183.337 28.6113 183.297 26.7602 183.442 24.9189L182.81 25.3844C182.448 25.6828 182.001 25.8584 181.533 25.8856C181.21 25.8603 180.896 25.7649 180.614 25.6062C180.332 25.4476 180.087 25.2293 179.898 24.9667L178.895 23.7733C177.744 27.0419 177.241 30.5039 177.415 33.9651L177.535 35.5405C177.56 35.8063 177.479 36.0714 177.309 36.2773C177.138 36.4832 176.894 36.6131 176.628 36.6384C176.362 36.6637 176.097 36.5824 175.891 36.4123C175.685 36.2422 175.555 35.9973 175.53 35.7314C175.47 35.1824 175.422 34.6335 175.398 34.0845L174.658 24.5967C174.587 23.7375 174.432 23.2362 174.181 23.1169C173.931 22.9975 173.191 23.463 172.642 24.2506C172.563 24.3595 172.464 24.452 172.35 24.5226C172.236 24.5933 172.109 24.6407 171.977 24.6624C171.844 24.684 171.709 24.6793 171.578 24.6486C171.448 24.6178 171.324 24.5617 171.215 24.4833C171.107 24.405 171.014 24.3059 170.943 24.1919C170.873 24.0778 170.825 23.9509 170.804 23.8185C170.782 23.686 170.787 23.5506 170.818 23.42C170.848 23.2894 170.904 23.1661 170.983 23.0572C172.176 21.2909 173.74 20.6703 175.064 21.2671C175.56 21.5751 175.966 22.0066 176.244 22.5192C176.523 23.0317 176.663 23.6078 176.652 24.191C176.938 23.2591 177.272 22.3429 177.654 21.4461C177.72 21.2873 177.826 21.1485 177.962 21.0438C178.098 20.939 178.259 20.872 178.43 20.8494C178.599 20.8208 178.772 20.8366 178.933 20.8951C179.094 20.9537 179.238 21.0531 179.349 21.1835C179.898 21.8399 180.315 22.4605 180.805 23.1527C180.903 23.3089 181.033 23.443 181.187 23.5465C181.428 23.6455 181.692 23.6779 181.95 23.6401C182.208 23.6023 182.452 23.4958 182.654 23.3317C183.318 22.9425 183.949 22.4994 184.54 22.007C185.201 21.3983 185.976 20.9258 186.819 20.6166C187.663 20.3074 188.559 20.1675 189.457 20.2049C190.468 20.4246 191.402 20.9097 192.164 21.6103C192.925 22.3108 193.486 23.2016 193.789 24.191C194.376 25.7071 194.638 27.3292 194.56 28.953C194.482 30.5768 194.065 32.1662 193.336 33.619C192.98 34.4581 192.426 35.1983 191.721 35.7761C191.017 36.354 190.182 36.7523 189.29 36.9368L188.86 36.9845ZM186.032 23.8568C185.933 24.0587 185.857 24.2708 185.805 24.4893C185.381 26.3566 185.3 28.2857 185.566 30.182C185.653 31.3755 186.008 32.5341 186.605 33.5713C186.862 33.991 187.224 34.3369 187.655 34.5753C188.086 34.8137 188.571 34.9365 189.063 34.9318C190.352 34.7886 191.223 33.3326 191.546 32.712C192.144 31.5096 192.486 30.1959 192.549 28.8544C192.613 27.5128 192.397 26.1727 191.916 24.9189C191.689 24.3342 190.806 22.3889 189.194 22.1741C188.559 22.1232 187.922 22.2573 187.361 22.5601C186.8 22.8629 186.338 23.3215 186.032 23.8807V23.8568Z" fill="#14563E" stroke="white" stroke-width="0.13" stroke-miterlimit="10"/>
<path d="M228.399 37.2466C228.101 37.2469 227.804 37.2109 227.515 37.1392C226.917 36.9473 226.371 36.6173 225.923 36.1757C225.476 35.7341 225.138 35.1934 224.938 34.5972C224.62 33.5981 224.462 32.5547 224.472 31.5062C224.269 25.6942 224.269 19.8106 224.472 13.9986C224.475 13.8664 224.505 13.7362 224.559 13.6156C224.613 13.495 224.691 13.3864 224.788 13.2963C224.884 13.2062 224.998 13.1364 225.122 13.091C225.246 13.0456 225.378 13.0255 225.511 13.0319C225.643 13.035 225.774 13.0644 225.895 13.1184C226.016 13.1724 226.126 13.25 226.217 13.3466C226.308 13.4431 226.379 13.5568 226.426 13.6811C226.472 13.8053 226.494 13.9376 226.489 14.0702C226.382 17.2686 226.322 20.4551 226.143 23.6176C226.386 23.2337 226.605 22.8351 226.799 22.4242C227.18 21.8626 227.682 21.3937 228.268 21.0523C228.854 20.7109 229.509 20.5057 230.185 20.4518C230.861 20.3979 231.541 20.4968 232.174 20.7412C232.806 20.9855 233.376 21.369 233.841 21.8633C234.688 22.9248 235.206 24.2107 235.332 25.5629C235.869 29.2626 234.736 34.0482 230.976 36.3635C230.215 36.8908 229.323 37.1965 228.399 37.2466ZM226.525 27.5679C226.423 28.8588 226.423 30.1557 226.525 31.4465C226.51 32.2744 226.623 33.0995 226.859 33.8931C226.948 34.1854 227.101 34.4541 227.308 34.6792C227.514 34.9044 227.769 35.0803 228.053 35.1939C228.711 35.2807 229.378 35.1097 229.914 34.7165C232.898 32.8787 233.781 28.9761 233.339 25.921C233.258 24.9542 232.902 24.0309 232.313 23.2596C230.964 21.6962 228.554 23.2596 227.611 24.5366C226.997 25.4381 226.623 26.4815 226.525 27.5679Z" fill="#14563E" stroke="white" stroke-width="0.13" stroke-miterlimit="10"/>
<path d="M238.197 30.0386C238.256 32.3181 238.579 34.8123 240.5 36.2325C241.337 36.8225 242.341 37.128 243.364 37.1037C244.146 37.0998 244.92 36.9458 245.644 36.6502C247.107 35.9788 248.412 35.007 249.475 33.7979C249.653 33.6024 249.751 33.3466 249.749 33.0819C249.742 32.8832 249.676 32.691 249.561 32.5293C249.445 32.3675 249.284 32.2434 249.099 32.1721C248.913 32.1009 248.711 32.0859 248.516 32.1288C248.322 32.1717 248.145 32.2707 248.007 32.4135C247.145 33.4163 246.084 34.229 244.892 34.8004C244.383 35.0345 243.824 35.1406 243.264 35.1094C242.705 35.0782 242.161 34.9107 241.681 34.6214C240.488 33.7263 240.261 31.8765 240.202 29.9909C240.202 29.6448 240.202 29.3345 240.202 29.0481V28.9049L240.321 28.9884C240.755 29.3209 241.259 29.5497 241.794 29.6572C242.33 29.7648 242.884 29.7483 243.412 29.609C244.533 29.2003 245.474 28.4084 246.068 27.3733C246.662 26.3382 246.871 25.1264 246.658 23.9521C246.596 23.2456 246.341 22.5699 245.92 21.9993C245.498 21.4287 244.928 20.9853 244.271 20.7179C243.97 20.622 243.656 20.5737 243.34 20.5747C242.532 20.5944 241.749 20.861 241.097 21.3385C238.364 23.248 238.101 26.9954 238.197 30.0386ZM240.846 24.9307C241.06 24.1277 241.572 23.4364 242.278 22.9974C242.473 22.8392 242.7 22.7252 242.943 22.6634C243.186 22.6016 243.44 22.5934 243.686 22.6394C244.224 22.8184 244.558 23.5822 244.665 24.2505C244.794 24.9425 244.686 25.6576 244.359 26.2809C244.032 26.9043 243.505 27.3997 242.863 27.6876C242.7 27.733 242.531 27.7571 242.362 27.7592C242.095 27.7634 241.834 27.6886 241.61 27.5444C241.384 27.3687 241.198 27.147 241.064 26.8939C240.93 26.6408 240.852 26.3622 240.834 26.0764C240.769 25.697 240.773 25.3088 240.846 24.9307Z" fill="#14563E" stroke="white" stroke-width="0.13" stroke-miterlimit="10"/>
<path d="M210.903 30.0386C210.975 32.318 211.297 34.8123 213.206 36.2325C214.043 36.8225 215.047 37.1279 216.07 37.1037C216.856 37.0998 217.634 36.9459 218.362 36.6502C219.82 35.9758 221.12 35.0043 222.181 33.7979C222.367 33.6062 222.47 33.3489 222.467 33.0818C222.464 32.9487 222.434 32.8176 222.379 32.6966C222.323 32.5755 222.244 32.467 222.145 32.3777C222.052 32.2843 221.941 32.2101 221.819 32.1595C221.698 32.1089 221.567 32.0829 221.435 32.0829C221.303 32.0829 221.172 32.1089 221.051 32.1595C220.929 32.2101 220.818 32.2843 220.725 32.3777C219.86 33.3772 218.8 34.1894 217.61 34.7646C217.101 34.9987 216.542 35.1048 215.983 35.0736C215.423 35.0424 214.88 34.8749 214.4 34.5856C213.206 33.6905 212.968 31.8407 212.92 29.9551C212.92 29.609 212.92 29.2987 212.92 29.0122V28.869L213.039 28.9526C213.473 29.285 213.977 29.5138 214.513 29.6214C215.048 29.729 215.602 29.7125 216.13 29.5732C217.245 29.1629 218.179 28.3739 218.77 27.3441C219.362 26.3143 219.572 25.1094 219.364 23.9402C219.3 23.2345 219.043 22.5599 218.623 21.9898C218.202 21.4196 217.633 20.9756 216.977 20.706C216.677 20.61 216.362 20.5617 216.047 20.5628C215.238 20.5825 214.455 20.849 213.803 21.3266C211.07 23.248 210.819 26.9953 210.903 30.0386ZM213.612 24.9307C213.814 24.1354 214.309 23.4452 214.996 22.9974C215.189 22.8394 215.414 22.7255 215.655 22.6637C215.896 22.6018 216.148 22.5935 216.393 22.6393C216.942 22.8183 217.276 23.5821 217.371 24.2505C217.503 24.9412 217.398 25.6561 217.073 26.2798C216.748 26.9034 216.223 27.3994 215.581 27.6875C215.418 27.733 215.249 27.7571 215.08 27.7591C214.81 27.7629 214.545 27.6883 214.316 27.5443C214.09 27.3697 213.904 27.148 213.773 26.8945C213.641 26.641 213.566 26.3618 213.552 26.0764C213.496 25.6943 213.517 25.3049 213.612 24.9307Z" fill="#14563E" stroke="white" stroke-width="0.13" stroke-miterlimit="10"/>
<path d="M209.912 12.5787C209.706 12.5665 209.498 12.5665 209.292 12.5787C208.242 12.6623 207.203 12.8174 206.141 12.8174C204.84 12.8174 203.551 12.7339 202.251 12.7339C201.32 12.7339 199.613 12.34 199.303 13.8437C198.992 15.3475 200.651 14.8701 201.236 14.8701H203.396H204.208C204.208 18.5578 204.112 32.7715 204.387 36.4234C204.47 37.5572 206.439 37.3424 206.356 36.2086C206.081 32.5329 206.153 18.6413 206.177 14.7985C207.49 14.7269 208.802 14.6553 210.103 14.6672C210.569 14.6672 210.939 14.0347 210.891 13.4738C210.879 13.2258 210.769 12.9927 210.586 12.8251C210.402 12.6575 210.16 12.569 209.912 12.5787Z" fill="#14563E" stroke="white" stroke-width="0.13" stroke-miterlimit="10"/>
<path d="M7.50667 73.4915C7.40182 73.2109 7.28232 72.9361 7.14865 72.668C6.86217 72.1832 6.47357 71.7667 6.00987 71.4472C5.54616 71.1278 5.01846 70.9131 4.46343 70.8182C3.72653 70.7218 2.97767 70.8489 2.31381 71.183C1.64995 71.517 1.10166 72.0427 0.73993 72.6919C0.283107 73.4677 0.0286635 74.3459 0 75.2458C0 77.1434 0.441572 79.3035 2.23172 80.3179C2.73075 80.5752 3.28038 80.7193 3.84146 80.7399C4.40253 80.7605 4.96126 80.6572 5.47784 80.4372C7.17251 79.7689 7.8647 77.7401 7.8647 76.0454C7.90784 75.1791 7.78635 74.3125 7.50667 73.4915ZM5.7404 78.3487C5.51732 78.7619 5.15557 79.083 4.71891 79.2554C4.28224 79.4279 3.79871 79.4407 3.35354 79.2916C1.94529 78.85 1.62307 77.1911 1.47985 75.938C1.39909 75.22 1.50174 74.4932 1.77821 73.8256C1.92217 73.4441 2.15041 73.1 2.44591 72.819C2.74141 72.5379 3.09654 72.3272 3.48482 72.2026C4.08457 72.1163 4.69468 72.2614 5.19142 72.6083C6.38485 73.396 6.38485 74.6133 6.38485 75.9141C6.33903 76.7612 6.11968 77.5899 5.7404 78.3487Z" fill="#1D1D1B"/>
<path d="M14.3808 67.4048C15.0491 67.9896 15.9442 66.9036 15.252 66.283C14.0586 65.1731 12.4475 65.9011 11.6717 67.2258C11.0567 68.5581 10.7351 70.007 10.7289 71.4744C10.6614 71.4802 10.5935 71.4802 10.526 71.4744C10.2542 71.4207 9.97443 71.4207 9.70257 71.4744C9.58368 71.4848 9.46701 71.513 9.35648 71.558C9.28885 71.6098 9.23423 71.6767 9.19694 71.7534C9.15966 71.83 9.14073 71.9143 9.14166 71.9995C9.13179 72.0899 9.14012 72.1813 9.16616 72.2683C9.1922 72.3554 9.23542 72.4364 9.29326 72.5064C9.35111 72.5765 9.42241 72.6343 9.50296 72.6764C9.58351 72.7185 9.67167 72.744 9.76224 72.7514C9.51162 72.7514 9.89352 72.7514 9.96513 72.7514C10.0367 72.7514 10.2396 72.7514 10.347 72.7514C10.2635 72.7514 10.2635 72.7514 10.347 72.7514H10.6693C10.6693 74.1716 10.7647 75.6156 10.8244 77.0239C10.8841 78.6827 10.8841 80.3535 10.9079 82.0124C10.9079 82.8955 12.3639 82.6688 12.34 81.7976C12.34 79.1004 12.2684 76.3913 12.173 73.6942V73.1094C12.173 73.002 12.173 72.7753 12.173 72.6917C12.173 72.6082 12.6026 72.6917 12.6981 72.6917C13.08 72.6917 13.4499 72.6917 13.8318 72.6917C14.2137 72.6917 14.6314 72.6917 14.703 72.2979C14.7746 71.9041 14.6434 71.5222 14.1779 71.4983C13.8958 71.4804 13.6128 71.4804 13.3306 71.4983C12.957 71.5203 12.5824 71.5203 12.2088 71.4983C12.241 70.91 12.3088 70.3241 12.4117 69.7439C12.5907 68.9324 13.1158 66.2711 14.3808 67.4048Z" fill="#1D1D1B"/>
<path d="M18.8681 78.5159C18.713 78.6949 18.4027 79.399 18.1043 79.1245C17.806 78.8501 17.9372 78.5875 17.9014 78.3727C17.8155 77.676 17.7836 76.9738 17.806 76.2722C17.806 75.5562 17.8776 74.8282 17.9253 74.1121C17.973 73.3961 17.9253 72.5249 18.0208 71.7253C18.0254 71.6133 18.0053 71.5016 17.962 71.3983C17.9186 71.2949 17.853 71.2023 17.7699 71.1272C17.6867 71.052 17.5881 70.996 17.4809 70.9633C17.3737 70.9305 17.2606 70.9218 17.1496 70.9376C16.4813 71.045 16.6006 71.8804 16.6006 72.3697C16.6006 73.3125 16.5171 74.2195 16.4813 75.1504C16.4813 75.8187 16.4813 76.4871 16.4813 77.1435C16.4813 78.2414 16.4813 79.6735 17.4599 80.3657C17.6931 80.5093 17.9617 80.5853 18.2356 80.5853C18.5095 80.5853 18.7781 80.5093 19.0113 80.3657C19.4157 80.1025 19.7677 79.7667 20.0496 79.3752C20.5747 78.6591 19.4171 77.8953 18.8681 78.5159Z" fill="#1D1D1B"/>
<path d="M17.806 68.2757L17.6747 68.1205L17.5434 67.9893C17.4754 67.9319 17.3928 67.8947 17.3047 67.8819C17.2115 67.8525 17.1115 67.8525 17.0183 67.8819C16.9246 67.884 16.8335 67.913 16.7558 67.9654H16.6842H16.5887C16.5026 68.068 16.4449 68.1915 16.4216 68.3234C16.3983 68.4094 16.3983 68.5 16.4216 68.586C16.4323 68.6782 16.4696 68.7653 16.529 68.8366C16.5865 68.9084 16.6601 68.9656 16.7438 69.0037C16.8231 69.0547 16.9128 69.0873 17.0064 69.0992H17.1973C17.3226 69.0882 17.4424 69.0428 17.5434 68.9679L17.6866 68.8366C17.7451 68.7678 17.786 68.6859 17.806 68.5979C17.8197 68.539 17.8197 68.4778 17.806 68.4189C17.811 68.3713 17.811 68.3233 17.806 68.2757Z" fill="#1D1D1B"/>
<path d="M31.8288 78.3009C31.5002 78.6222 31.0858 78.8419 30.6353 78.9334C30.0744 79.017 30.0148 77.9667 29.967 77.5848C29.8954 76.8807 29.967 76.1647 29.8835 75.4367C29.8616 74.6922 29.8815 73.9472 29.9432 73.205C30.0457 72.5726 30.0457 71.9278 29.9432 71.2955C29.8835 71.0448 29.7761 70.8778 29.4897 70.8778C29.3713 70.867 29.2526 70.8949 29.1515 70.9573C29.0503 71.0197 28.9722 71.1132 28.9287 71.2239C28.855 71.4968 28.811 71.7769 28.7975 72.0593C28.7459 72.395 28.718 72.734 28.7139 73.0737C28.7139 73.384 28.7139 73.6943 28.7139 74.0046C28.6198 74.8496 28.3429 75.6641 27.9024 76.3914C27.5066 77.0867 26.9985 77.7117 26.3987 78.2412C26.1326 78.5237 25.8074 78.7439 25.4464 78.8863C25.0854 79.0286 24.6974 79.0895 24.3102 79.0647C22.8064 78.7305 22.4484 76.7017 22.4484 75.5083C22.4135 74.7652 22.5567 74.0246 22.8661 73.3482C23.0173 73.0292 23.2473 72.754 23.5344 72.5486C23.7541 72.38 24.0059 72.2581 24.2744 72.1905C24.6085 72.1309 24.7995 72.4889 25.0859 72.5724C25.1682 72.5861 25.2524 72.5833 25.3336 72.5642C25.4149 72.5451 25.4915 72.5102 25.5592 72.4614C25.6268 72.4126 25.6842 72.3509 25.7279 72.2798C25.7716 72.2087 25.8008 72.1297 25.8139 72.0473C25.8139 71.6058 25.3126 71.2119 24.9546 71.0448C24.5236 70.8838 24.049 70.8838 23.618 71.0448C23.1584 71.2004 22.7352 71.4478 22.3741 71.7719C22.013 72.0961 21.7216 72.4902 21.5175 72.9305C20.8403 74.5056 20.7807 76.278 21.3505 77.8951C21.5839 78.6858 22.083 79.3717 22.7636 79.837C23.4441 80.3023 24.2644 80.5185 25.0859 80.4491C26.5211 80.0662 27.7578 79.1536 28.5468 77.8951C28.5476 78.3058 28.6389 78.7112 28.8142 79.0825C28.9896 79.4538 29.2446 79.7818 29.5613 80.0433C30.0941 80.2519 30.677 80.2974 31.2358 80.1742C31.7946 80.0509 32.3042 79.7645 32.7 79.3511C33.3922 78.7783 32.509 77.7042 31.8288 78.3009Z" fill="#1D1D1B"/>
<path d="M30.0267 67.3336C29.9808 67.2616 29.9197 67.2004 29.8477 67.1546C29.7764 67.0952 29.6893 67.0578 29.5971 67.0472C29.5032 67.0224 29.4045 67.0224 29.3106 67.0472H29.1316C29.0162 67.0934 28.9138 67.1671 28.8333 67.262L28.7378 67.4171C28.7029 67.5298 28.7029 67.6505 28.7378 67.7632V67.8945C28.7383 67.9868 28.7722 68.0759 28.8333 68.1451C28.8683 68.2274 28.9263 68.2978 29.0004 68.348C29.0736 68.4065 29.1594 68.4474 29.251 68.4673C29.3456 68.4851 29.4428 68.4851 29.5374 68.4673H29.7283C29.8402 68.4207 29.9387 68.3468 30.0148 68.2525L30.1222 68.0974C30.1579 67.9848 30.1579 67.8639 30.1222 67.7513V67.62C30.124 67.5164 30.0903 67.4153 30.0267 67.3336Z" fill="#1D1D1B"/>
<path d="M41.2331 78.3962C41.0815 78.679 40.8307 78.8958 40.529 79.0049C40.3738 79.0049 40.4693 79.0049 40.338 79.0049C40.2253 78.9159 40.1353 78.8013 40.0755 78.6707C39.7387 78.0138 39.5397 77.295 39.4907 76.5584C39.4907 75.8304 39.3475 75.1143 39.3117 74.3863C39.2879 73.965 39.2879 73.5426 39.3117 73.1213C39.3713 72.7697 39.3713 72.4107 39.3117 72.0591C39.2457 71.7342 39.0932 71.4332 38.8701 71.1879C38.5224 70.8989 38.1148 70.691 37.6767 70.5793C37.2809 70.4899 36.8699 70.4919 36.475 70.5849C36.0801 70.678 35.7115 70.8597 35.3972 71.1163C34.7904 71.6782 34.3032 72.3568 33.9649 73.1115C33.6265 73.8661 33.4439 74.6813 33.4281 75.5081C33.2778 76.6035 33.4348 77.7191 33.8816 78.7304C34.0809 79.2483 34.4545 79.6805 34.938 79.9527C35.4215 80.225 35.9848 80.3203 36.531 80.2222C37.1055 80.0224 37.6051 79.6518 37.9631 79.16C38.1189 78.9081 38.247 78.64 38.345 78.3604C38.4364 78.7661 38.6137 79.1475 38.8648 79.4789C39.116 79.8103 39.4352 80.0841 39.801 80.2819C40.2817 80.4261 40.7971 80.4031 41.2631 80.2167C41.7291 80.0303 42.1182 79.6915 42.3668 79.2555C42.892 78.4798 41.7463 77.6682 41.2331 78.3962ZM37.8557 73.0497V73.1213C37.91 73.5971 37.91 74.0776 37.8557 74.5534C37.8843 75.7019 37.6603 76.8427 37.1993 77.895C37.0675 78.2056 36.8628 78.4799 36.6026 78.6946C35.982 79.1123 35.5882 78.8617 35.2659 78.253C35.0147 77.7387 34.8725 77.178 34.8482 76.6061C34.7678 75.3678 35.0234 74.1308 35.5882 73.0258C35.8234 72.5195 36.2475 72.1254 36.7697 71.9279C37.6051 71.5579 37.7244 72.4052 37.8557 73.0497Z" fill="#1D1D1B"/>
<path d="M38.5597 66.4501C38.4392 66.3118 38.2749 66.2191 38.0942 66.1876C37.9359 66.1658 37.7747 66.1959 37.6349 66.2733C37.4951 66.3508 37.3841 66.4714 37.3185 66.6172C37.2693 66.6862 37.2133 66.7502 37.1514 66.8082C37.0798 66.9036 36.9844 66.9872 36.9128 67.0826C36.8412 67.1781 36.7576 67.2736 36.6741 67.381L36.5428 67.5361C36.5042 67.579 36.4721 67.6273 36.4473 67.6794C36.371 67.7479 36.3064 67.8285 36.2564 67.918C36.2209 68.001 36.2026 68.0904 36.2026 68.1806C36.2026 68.2708 36.2209 68.3602 36.2564 68.4432C36.2919 68.5273 36.3441 68.6034 36.4097 68.667C36.4753 68.7306 36.553 68.7803 36.6383 68.8131C36.8195 68.8788 37.018 68.8788 37.1992 68.8131C37.4335 68.7114 37.6239 68.5294 37.7362 68.2999L37.6288 68.4551L37.772 68.2999C37.8128 68.242 37.8567 68.1862 37.9033 68.1329C37.9253 68.086 37.9452 68.0382 37.963 67.9897C37.9958 67.9293 38.0359 67.8732 38.0823 67.8226C38.3533 67.6058 38.5495 67.3094 38.6432 66.9752C38.6814 66.7959 38.6516 66.6088 38.5597 66.4501Z" fill="#1D1D1B"/>
<path d="M56.3299 77.895H56.2583C55.948 77.9786 55.8048 78.3008 55.6139 78.5275C55.1604 79.0527 54.8978 78.4559 54.8381 78.0144C54.7711 77.2202 54.7711 76.4217 54.8381 75.6275C54.9296 74.6262 54.8733 73.6169 54.671 72.632C54.4324 71.7608 53.943 70.6867 52.9525 70.4838C51.6755 70.2213 50.8282 71.2715 50.2792 72.3933C50.2792 72.1188 50.2792 71.8324 50.2792 71.5579C50.249 71.4073 50.1726 71.2699 50.0608 71.1646C49.9489 71.0594 49.807 70.9916 49.6549 70.9706C49.5027 70.9496 49.3478 70.9765 49.2116 71.0475C49.0754 71.1185 48.9647 71.2302 48.8948 71.367C48.1549 73.1332 47.7014 74.9473 47.0331 76.7851C46.8779 77.2386 45.9113 79.351 45.3146 78.265C45.1505 77.8387 45.0694 77.385 45.0759 76.9284C44.9606 75.4036 44.9287 73.8738 44.9804 72.3456C45.0878 70.4958 45.0401 68.6459 44.9804 66.7961C44.9804 65.913 43.5483 66.0801 43.5483 66.9632C43.5483 69.183 43.5483 71.4147 43.5483 73.6225C43.5483 73.897 43.5483 74.1715 43.5483 74.4341C43.5483 75.0785 43.5483 75.711 43.5483 76.3436C43.5501 77.3804 43.7954 78.4024 44.2643 79.3271C44.3737 79.5212 44.5252 79.6884 44.7077 79.8163C44.8901 79.9442 45.0989 80.0295 45.3187 80.0662C45.5385 80.1028 45.7636 80.0897 45.9777 80.0279C46.1918 79.9661 46.3893 79.8572 46.5557 79.709C47.6775 78.8259 47.8924 77.4177 48.4533 76.2004C48.5607 75.9617 48.692 75.711 48.7874 75.4604C48.8393 75.2703 48.9113 75.0863 49.0023 74.9115C49.1693 75.0547 49.0858 75.4962 49.0858 75.711C49.0858 75.9259 49.0858 76.4748 49.0858 76.9045C49.0439 77.6637 49.0439 78.4247 49.0858 79.1839C49.0858 79.4584 49.0858 79.9597 49.3841 80.1029C49.6825 80.2461 50.1002 79.9716 50.2554 79.7568C50.4105 79.542 50.2554 79.172 50.2554 78.8736C50.2705 78.142 50.3625 77.414 50.5298 76.7016C50.6379 75.7918 50.8256 74.8933 51.0908 74.0164C51.2621 73.2837 51.6292 72.6113 52.1529 72.0711C52.6064 71.7131 52.7257 71.8205 52.9883 72.3575C53.2003 72.8117 53.3257 73.3014 53.3583 73.8016C53.5731 75.6275 53.0122 77.5609 53.7402 79.3391C53.8601 79.6974 54.1168 79.9939 54.4544 80.1638C54.7919 80.3337 55.183 80.3632 55.5423 80.2461C56.1628 80.0193 57.6188 79.0527 57.034 78.2053C56.953 78.0977 56.8457 78.0127 56.7224 77.9583C56.5992 77.904 56.464 77.8822 56.3299 77.895Z" fill="#1D1D1B"/>
<path d="M59.7193 78.9215C59.3732 79.0528 59.3135 78.2054 59.3016 77.9667C59.3016 77.2029 59.3016 76.463 59.3016 75.7112C59.3016 74.3745 59.4806 73.0617 59.4925 71.7251C59.5165 71.5278 59.4626 71.3289 59.3423 71.1707C59.2219 71.0124 59.0446 70.9074 58.8481 70.8778C58.4901 70.8062 58.2872 71.0568 58.2156 71.3909C58.1201 71.9041 58.1082 72.4531 58.0604 72.9663C57.9291 74.6251 58.0604 76.284 58.0604 77.9429C57.9975 78.5582 58.0626 79.1798 58.2514 79.7688C58.3949 80.0486 58.6281 80.2724 58.9136 80.4043C59.1991 80.5362 59.5205 80.5688 59.8267 80.4968C60.2301 80.3365 60.5754 80.0577 60.8172 79.6972C60.8788 79.6184 60.9219 79.5268 60.9433 79.4291C60.9648 79.3314 60.964 79.2301 60.9411 79.1328C60.9182 79.0354 60.8737 78.9445 60.811 78.8666C60.7482 78.7887 60.6688 78.7259 60.5786 78.6828C60.2444 78.4918 60.137 78.5754 59.8625 78.826C59.8213 78.8667 59.7727 78.8991 59.7193 78.9215Z" fill="#1D1D1B"/>
<path d="M60.5666 66.7365C60.4859 66.5663 60.3442 66.4326 60.1696 66.3619C59.995 66.2912 59.8003 66.2886 59.6238 66.3546C59.5229 66.3946 59.4308 66.4543 59.353 66.53C59.2751 66.6058 59.2131 66.6963 59.1703 66.7961V66.9155C59.1136 67.0116 59.0498 67.1034 58.9794 67.19C58.8572 67.3454 58.7456 67.5089 58.6452 67.6793L58.7407 67.5361C58.6691 67.6435 58.5736 67.739 58.502 67.8464C58.4304 67.9538 58.2991 68.1447 58.2156 68.2999L58.3111 68.1447C58.2822 68.1868 58.2503 68.2267 58.2156 68.2641C58.1563 68.3346 58.112 68.4165 58.0853 68.5047C58.0587 68.5929 58.0502 68.6857 58.0604 68.7772C58.07 68.867 58.0983 68.9538 58.1435 69.0319C58.1888 69.11 58.2499 69.1778 58.323 69.2307C58.476 69.3422 58.6655 69.3919 58.8536 69.3698C59.0416 69.3476 59.2144 69.2554 59.3374 69.1114L59.4448 68.9921L59.5522 68.813C59.5522 68.7295 59.6716 68.634 59.7432 68.5505L60.0415 68.097L59.9461 68.2521C60.0415 68.097 60.1728 67.9657 60.2802 67.8106C60.3669 67.6986 60.4428 67.5787 60.507 67.4525V67.3332C60.5627 67.2453 60.5971 67.1455 60.6075 67.0419C60.6178 66.9383 60.6039 66.8337 60.5666 66.7365Z" fill="#1D1D1B"/>
<path d="M72.1428 77.8952C71.8839 78.0594 71.6438 78.2515 71.4268 78.468C71.1506 78.6719 70.8499 78.8403 70.5317 78.9693C70.262 79.0473 69.9751 79.0436 69.7075 78.9586C69.4398 78.8736 69.2034 78.7112 69.028 78.4919C68.5998 77.9604 68.3161 77.3273 68.2045 76.654C68.2045 76.5227 68.2045 76.4034 68.2045 76.2721C68.4245 76.4317 68.6655 76.5602 68.9206 76.654C69.3296 76.7836 69.7622 76.8209 70.1874 76.7631C70.6125 76.7053 71.0195 76.5539 71.3791 76.3199C72.1115 75.9494 72.6749 75.3134 72.9544 74.5416C73.1082 74.1078 73.1538 73.643 73.0873 73.1875C73.0207 72.7321 72.844 72.2997 72.5725 71.928C71.1762 70.1498 68.5387 71.0926 67.4646 72.6918C66.9737 73.5947 66.7165 74.606 66.7165 75.6336C66.7165 76.6613 66.9737 77.6726 67.4646 78.5754C67.6953 79.0844 68.0562 79.5235 68.5109 79.8483C68.9657 80.1731 69.4981 80.3721 70.0543 80.4253C70.7411 80.4283 71.4135 80.2291 71.9877 79.8524C72.4054 79.5779 73.3124 78.9812 73.0857 78.3726C73.0263 78.232 72.929 78.1106 72.8046 78.0221C72.6803 77.9336 72.5338 77.8814 72.3815 77.8713L72.1428 77.8952ZM70.6272 72.3338C70.8285 72.3753 71.0169 72.4643 71.1767 72.5935C71.3366 72.7226 71.4633 72.8881 71.5462 73.0761C71.6291 73.2641 71.6659 73.4692 71.6534 73.6743C71.6409 73.8795 71.5796 74.0786 71.4745 74.2552C71.2465 74.6862 70.887 75.0332 70.4482 75.2458C70.2358 75.3742 69.9923 75.4422 69.7441 75.4422C69.4958 75.4422 69.2523 75.3742 69.0399 75.2458C68.3358 74.84 68.479 73.4914 68.9803 72.9783C69.1837 72.7482 69.4396 72.5705 69.7263 72.4604C70.013 72.3503 70.322 72.3109 70.6272 72.3457V72.3338Z" fill="#1D1D1B"/>
<path d="M80.4014 74.7207C80.3344 74.7072 80.2654 74.7072 80.1985 74.7207C79.5168 74.6034 78.8228 74.5753 78.1339 74.6371C77.5995 74.7027 77.0608 74.7266 76.5227 74.7088C76.2721 74.7088 76.0931 74.6133 75.8663 74.7088C75.7673 74.7588 75.6812 74.8313 75.6149 74.9203C75.5486 75.0094 75.504 75.1126 75.4844 75.2219C75.4639 75.4034 75.5147 75.5857 75.626 75.7304C75.7373 75.8751 75.9005 75.971 76.0812 75.9977C76.6185 76.0871 77.1669 76.0871 77.7042 75.9977C78.308 75.95 78.9145 75.95 79.5182 75.9977C79.9956 75.9977 80.6162 76.1409 80.7952 75.5561C80.8467 75.3928 80.8348 75.2162 80.7618 75.0613C80.6888 74.9065 80.5601 74.7848 80.4014 74.7207Z" fill="#1D1D1B"/>
<path d="M86.8936 75.3891C86.5195 75.0568 86.1205 74.7536 85.7002 74.4821C85.4018 74.2792 84.9006 74.0286 84.7693 73.6706C84.6969 73.4289 84.703 73.1705 84.7866 72.9325C84.8702 72.6945 85.0271 72.4891 85.2348 72.3458C85.3835 72.2664 85.5495 72.2249 85.7181 72.2249C85.8867 72.2249 86.0527 72.2664 86.2014 72.3458C86.2014 72.3458 86.4282 72.7755 86.5356 72.8352C86.6963 72.908 86.8757 72.9288 87.0488 72.8948C87.1352 72.8859 87.2189 72.86 87.2952 72.8184C87.3715 72.7769 87.4388 72.7207 87.4932 72.653C87.5476 72.5852 87.588 72.5074 87.6121 72.424C87.6362 72.3405 87.6435 72.2531 87.6336 72.1668C87.4665 70.866 85.8076 70.7586 84.829 71.0569C84.3298 71.2695 83.9126 71.6375 83.6395 72.1063C83.3664 72.5751 83.252 73.1196 83.3133 73.6586C83.3133 74.7685 84.5068 75.3055 85.2825 75.8784C85.7038 76.1663 86.0713 76.5258 86.3685 76.9405C86.6645 77.2992 86.8213 77.7526 86.8101 78.2175C86.7027 78.671 86.1418 78.7426 85.7837 78.7188C85.4257 78.6949 84.6619 78.5039 84.5903 77.9908C84.5903 77.1076 83.0866 77.2747 83.1463 78.1579C83.2417 79.3513 84.4948 79.9957 85.5331 80.0793C86.1001 80.1639 86.6786 80.0417 87.1629 79.7349C87.6472 79.4281 88.0049 78.9573 88.1706 78.4085C88.2136 77.8399 88.1201 77.2692 87.898 76.744C87.6759 76.2189 87.3315 75.7543 86.8936 75.3891Z" fill="#1D1D1B"/>
<path d="M96.2622 79.1957C96.0951 79.2792 95.749 79.506 95.558 79.4582C95.3671 79.4105 95.2477 79.0883 95.2477 78.9689C95.1348 78.6259 95.0745 78.2678 95.0687 77.9068C95.0367 77.0536 95.0766 76.1993 95.1881 75.3528C95.379 73.8014 95.6774 70.8536 93.374 70.7939C92.7949 70.8271 92.2374 71.0258 91.7678 71.3664C91.2981 71.707 90.9361 72.1752 90.7246 72.7154C90.7246 71.8442 90.7962 70.973 90.844 70.1018L90.9156 68.3832C90.9156 67.8462 90.9752 67.333 91.0111 66.8079C91.0827 65.9486 89.758 65.9725 89.567 66.7124C89.4814 67.1927 89.4493 67.681 89.4715 68.1684C89.4715 68.7532 89.4715 69.3618 89.3999 69.9227C89.3999 71.1162 89.2806 72.3096 89.2448 73.503C89.1732 75.6273 89.3164 77.7158 89.3164 79.8282C89.3164 80.7114 90.7604 80.5443 90.7604 79.6611C90.6915 77.8758 90.9463 76.0927 91.5123 74.3981C91.7162 73.6456 92.1301 72.9667 92.7057 72.4409C92.9683 72.2499 93.2666 72.0351 93.5769 72.2141C93.8872 72.3931 93.935 73.1927 93.935 73.5746C93.755 75.1594 93.6713 76.7535 93.6843 78.3484C93.7285 79.1291 94.0551 79.8672 94.6033 80.4249C94.9377 80.6522 95.3327 80.7737 95.737 80.7737C96.1414 80.7737 96.5364 80.6522 96.8708 80.4249C96.9645 80.3935 97.0503 80.3423 97.1225 80.2749C97.1948 80.2075 97.2518 80.1254 97.2897 80.0342C97.3275 79.9429 97.3454 79.8446 97.3422 79.7458C97.3389 79.6471 97.3145 79.5502 97.2707 79.4616C97.2268 79.3731 97.1645 79.295 97.088 79.2325C97.0114 79.17 96.9224 79.1247 96.8268 79.0995C96.7313 79.0743 96.6315 79.0698 96.5341 79.0864C96.4367 79.103 96.344 79.1403 96.2622 79.1957Z" fill="#1D1D1B"/>
<path d="M105.308 73.1812C104.978 72.3767 104.423 71.6845 103.709 71.1882C103.195 70.8187 102.59 70.5967 101.959 70.5462C101.328 70.4957 100.695 70.6187 100.129 70.9018C99.4815 71.3864 98.9642 72.0236 98.6227 72.7565C98.2812 73.4894 98.1262 74.2954 98.1715 75.1027C98.1585 76.0978 98.3035 77.0888 98.6012 78.0385C98.8828 78.9344 99.4225 79.7273 100.153 80.318C100.568 80.6044 101.056 80.7646 101.56 80.7795C102.064 80.7943 102.562 80.663 102.993 80.4015C103.829 79.9507 104.525 79.2798 105.007 78.4615C105.489 77.6432 105.737 76.7086 105.726 75.7591C105.75 74.8811 105.609 74.0065 105.308 73.1812ZM102.575 79.0052C102.11 79.3274 101.453 79.6377 100.964 79.1961C100.467 78.7397 100.1 78.1588 99.902 77.5134C99.6718 76.7387 99.5552 75.9347 99.5559 75.1265C99.5072 74.2963 99.6933 73.4691 100.093 72.7397C100.205 72.5167 100.374 72.328 100.585 72.1935C100.795 72.0591 101.037 71.9839 101.286 71.9759C101.861 71.9384 102.433 72.0938 102.909 72.4174C103.401 72.7631 103.776 73.2501 103.984 73.8138C104.142 74.4093 104.218 75.0236 104.21 75.6397C104.259 76.2951 104.133 76.9516 103.846 77.5427C103.559 78.1338 103.121 78.6384 102.575 79.0052Z" fill="#1D1D1B"/>
<path d="M111.43 70.9849C110.76 70.8182 110.06 70.8182 109.39 70.9849C109.111 71.0433 108.839 71.1313 108.578 71.2475C108.256 70.5314 107.015 71.0088 107.277 71.8442C107.194 71.5936 107.277 72.1545 107.277 72.238V73.1212C107.277 73.694 107.277 74.2549 107.277 74.8278C107.277 76.0212 107.206 77.0834 107.194 78.2171C107.182 79.3509 107.194 80.5324 107.122 81.69C107.122 82.2629 107.122 82.8834 107.122 83.4205C107.101 83.8284 107.171 84.2358 107.325 84.6139C107.552 85.0197 108.256 85.1868 108.519 84.7094C108.622 83.9903 108.65 83.2623 108.602 82.5373C108.602 82.0122 108.602 81.4871 108.602 80.962C108.602 80.7591 108.602 80.5443 108.602 80.3414C109.034 80.5559 109.51 80.6676 109.992 80.6676C110.475 80.6676 110.951 80.5559 111.383 80.3414C112.442 79.6049 113.171 78.4823 113.412 77.2146C114.068 75.1858 113.984 71.7129 111.43 70.9849ZM112.349 75.3171C112.24 76.3405 111.945 77.3354 111.478 78.2529C111.347 78.5671 111.137 78.8424 110.87 79.0525C110.648 79.1993 110.394 79.2894 110.13 79.3151C109.932 79.3547 109.729 79.3484 109.534 79.2966C109.339 79.2449 109.159 79.1491 109.008 79.0167C108.923 78.9302 108.854 78.8291 108.805 78.7184C108.702 77.0731 108.702 75.4229 108.805 73.7776C108.805 73.145 108.805 72.5841 109.497 72.3216C109.723 72.2578 109.955 72.2178 110.189 72.2022C110.67 72.1456 111.154 72.2783 111.538 72.5722C111.877 72.9353 112.127 73.3723 112.268 73.8488C112.409 74.3253 112.437 74.828 112.349 75.3171Z" fill="#1D1D1B"/>
<path d="M222.778 73.8255C222.728 73.2024 222.512 72.6038 222.153 72.0919C221.795 71.5799 221.306 71.1731 220.737 70.9136C220.048 70.792 219.338 70.875 218.696 71.1523C218.497 71.2247 218.312 71.3296 218.147 71.4625C217.932 70.8062 216.691 71.009 216.691 71.8206C216.691 73.014 216.691 74.112 216.691 75.2696C216.787 77.2745 216.763 79.2914 216.763 81.2367C216.763 81.738 216.763 82.2273 216.763 82.7166C216.678 83.3062 216.752 83.9076 216.978 84.459C217.045 84.5922 217.158 84.6961 217.297 84.7511C217.435 84.8061 217.589 84.8083 217.729 84.7574C217.877 84.6945 218.003 84.5899 218.092 84.4563C218.181 84.3227 218.229 84.166 218.231 84.0055C218.302 83.194 218.231 82.3824 218.231 81.6186C218.231 81.0935 218.231 80.5684 218.231 80.0552C218.621 80.2319 219.044 80.3233 219.472 80.3233C219.9 80.3233 220.323 80.2319 220.713 80.0552C221.242 79.7942 221.68 79.3779 221.966 78.8618C222.231 78.4502 222.428 77.999 222.551 77.5252C222.894 76.3229 222.971 75.0606 222.778 73.8255ZM221.334 75.6276C221.295 76.5523 221.041 77.4552 220.594 78.2651C220.493 78.4422 220.352 78.5929 220.182 78.705C220.012 78.817 219.817 78.8871 219.615 78.9095C219.159 78.9248 218.713 78.7719 218.362 78.4799C218.245 78.3803 218.172 78.2389 218.159 78.0861C218.071 77.3616 218.043 76.6312 218.075 75.9021C218.018 74.9163 218.126 73.9278 218.398 72.9782C218.607 72.727 218.877 72.5337 219.182 72.4167C219.487 72.2997 219.817 72.2629 220.14 72.3099C220.44 72.3667 220.71 72.5273 220.904 72.7634C221.092 73.0755 221.206 73.4266 221.238 73.7897C221.365 74.3937 221.397 75.0137 221.334 75.6276Z" fill="#1D1D1B"/>
<path d="M230.105 73.6941C230.628 73.7694 231.161 73.6459 231.597 73.348C231.956 73.0653 232.242 72.7012 232.432 72.2859C232.898 71.4863 231.502 70.9731 231.06 71.7369C230.953 71.9278 230.869 72.2023 230.642 72.2978C230.517 72.3334 230.385 72.3401 230.257 72.3173C230.129 72.2946 230.008 72.243 229.902 72.1665C229.27 71.8443 228.864 71.2834 228.255 70.9731C228.134 70.9205 228 70.9006 227.868 70.9152C227.737 70.9299 227.611 70.9786 227.504 71.0566C227.292 71.2342 227.138 71.4711 227.062 71.7369C226.898 71.4457 226.648 71.2123 226.346 71.0686C225.224 70.5196 224.257 71.3669 223.852 72.3455C223.446 73.3242 224.89 73.7061 225.224 72.8826C225.272 72.7384 225.341 72.6018 225.427 72.4768C225.475 72.4071 225.531 72.343 225.594 72.2859C225.845 72.3694 225.916 72.7871 225.964 73.0139C226.051 73.4546 226.103 73.9016 226.119 74.3505C226.119 74.7324 226.227 75.0904 226.238 75.4843C226.25 75.8781 226.238 76.0213 226.238 76.3077C226.238 76.9522 226.238 77.5966 226.238 78.2291C226.238 78.8617 226.238 79.4226 226.238 79.9119C226.239 80.0309 226.275 80.147 226.343 80.2447C226.412 80.3424 226.508 80.417 226.619 80.4585C226.731 80.5 226.852 80.5065 226.968 80.477C227.083 80.4476 227.187 80.3837 227.265 80.2938C227.438 80.0873 227.528 79.8232 227.515 79.5539C227.515 78.7185 227.515 77.8711 227.575 77.0357C227.635 76.2003 227.671 75.4723 227.742 74.6489C227.731 74.144 227.799 73.6405 227.945 73.1571C227.975 73.0823 228.022 73.0154 228.082 72.9615C228.142 72.9077 228.214 72.8685 228.291 72.8468C228.53 72.8468 228.53 72.9781 228.661 73.0974C229.071 73.4376 229.575 73.6456 230.105 73.6941Z" fill="#1D1D1B"/>
<path d="M239.581 74.3148C239.495 73.4587 239.196 72.638 238.71 71.9279C238.41 71.5366 238.032 71.2116 237.6 70.9732C236.798 70.5938 235.884 70.5258 235.034 70.7823C234.373 71.0426 233.798 71.4841 233.376 72.0561C232.953 72.6282 232.701 73.3076 232.647 74.0164C232.534 74.9239 232.534 75.8419 232.647 76.7494C232.838 78.3247 233.781 80.3297 235.583 80.5922C235.778 80.612 235.973 80.612 236.168 80.5922C236.42 80.5571 236.665 80.4847 236.896 80.3774C237.339 80.1492 237.742 79.8509 238.089 79.4943C238.719 78.8583 239.178 78.0745 239.426 77.2148C239.681 76.2698 239.734 75.2817 239.581 74.3148ZM238.006 76.451C237.851 77.2878 237.433 78.0531 236.812 78.635C236.514 78.9341 236.113 79.109 235.691 79.1243C235.261 79.1243 234.963 78.7186 234.736 78.3963C234.413 77.9026 234.201 77.3448 234.115 76.7613C234.02 76.0565 234.02 75.3419 234.115 74.637C234.102 74.1513 234.203 73.6693 234.411 73.2299C234.618 72.7904 234.925 72.4058 235.309 72.107C235.511 72.0069 235.732 71.9489 235.958 71.9366C236.183 71.9243 236.409 71.9579 236.621 72.0354C237.027 72.1607 237.372 72.4331 237.588 72.7991C238.177 73.9221 238.326 75.2242 238.006 76.451Z" fill="#1D1D1B"/>
<path d="M252.78 76.785C252.417 77.6574 251.871 78.4425 251.181 79.0883C250.975 79.287 250.712 79.4163 250.429 79.4582C250.063 79.5359 249.685 79.5359 249.319 79.4582C247.649 79.1599 246.933 76.8327 246.73 75.4125C246.487 74.3732 246.468 73.2942 246.673 72.2469C246.879 71.1997 247.305 70.2081 247.923 69.338C248.53 68.7057 249.326 68.287 250.191 68.1445C250.573 68.0613 250.972 68.0927 251.338 68.2349C251.703 68.3772 252.018 68.6238 252.243 68.9441C252.434 69.2067 252.601 69.6124 252.983 69.6244C253.071 69.6169 253.157 69.5921 253.235 69.5513C253.313 69.5106 253.383 69.4548 253.439 69.3871C253.496 69.3195 253.538 69.2413 253.565 69.157C253.591 69.0728 253.6 68.9842 253.592 68.8964C253.551 68.4375 253.338 68.0112 252.995 67.703C252.402 67.1942 251.67 66.8745 250.894 66.7852C250.118 66.6959 249.332 66.8409 248.639 67.2017C247.79 67.6068 247.051 68.2112 246.486 68.9635C245.921 69.7157 245.546 70.5935 245.393 71.5219C244.903 73.6245 245.083 75.8276 245.906 77.8232C246.25 78.6845 246.775 79.4618 247.446 80.1027C248.118 80.6493 248.966 80.9335 249.833 80.9023C250.329 80.9121 250.823 80.822 251.284 80.6375C251.745 80.453 252.165 80.1778 252.518 79.8282C253.232 79.0923 253.81 78.2357 254.224 77.2981C254.582 76.415 253.21 75.9973 252.78 76.785Z" fill="#1D1D1B"/>
<path d="M251.933 62.7622C251.468 62.7622 251.122 63.2754 250.859 63.6095L250.37 64.2301C250.214 64.433 250.143 64.6478 249.892 64.4927C249.642 64.3375 249.224 63.8363 248.806 63.5976C248.679 63.5057 248.52 63.4667 248.365 63.489C248.209 63.5112 248.068 63.5929 247.971 63.7169C247.362 64.4091 248.257 64.9104 248.663 65.2923C248.925 65.5344 249.205 65.7578 249.498 65.9606C250.083 66.3783 250.573 66.1754 250.99 65.6264C251.408 65.0775 251.766 64.6717 252.184 64.1824C252.351 63.9676 252.613 63.6453 252.577 63.3589C252.552 63.202 252.474 63.0582 252.357 62.9502C252.241 62.8421 252.091 62.776 251.933 62.7622Z" fill="#1D1D1B"/>
<path d="M264.846 80.282C264.691 79.8763 264.393 79.9479 264.058 79.8882C263.724 79.8285 263.593 79.4586 263.438 79.2079C263.283 78.9573 262.972 78.5516 262.757 78.2055C262.364 77.573 262.065 76.8927 261.683 76.2482C261.316 75.6371 260.843 75.0957 260.287 74.649C260.918 74.4637 261.506 74.1555 262.018 73.742C262.52 73.2854 262.909 72.7169 263.151 72.0826C263.394 71.4482 263.484 70.7657 263.414 70.0901C263.412 69.3896 263.191 68.7072 262.782 68.1381C262.374 67.5691 261.798 67.1417 261.134 66.9156C260.504 66.7317 259.843 66.6709 259.189 66.7366C258.662 66.7494 258.137 66.8215 257.626 66.9514C257.467 66.954 257.314 67.0112 257.192 67.1133C257.07 67.2155 256.988 67.3563 256.957 67.5123C256.927 67.6175 256.927 67.7294 256.957 67.8346C257.077 68.7893 257.017 73.1334 257.017 74.303V76.8688C257.017 77.7042 257.017 78.5277 257.017 79.3631C257.017 79.7331 257.017 80.473 257.339 80.7117C257.41 80.7613 257.489 80.7963 257.573 80.8148C257.657 80.8333 257.744 80.8347 257.828 80.8192C257.913 80.8036 257.993 80.7713 258.065 80.7241C258.137 80.677 258.198 80.6159 258.246 80.5446C258.428 80.2094 258.496 79.8237 258.437 79.4466C258.437 78.9335 258.437 78.4322 258.378 77.919C258.378 76.9404 258.378 75.9499 258.378 74.9713C258.925 75.2372 259.422 75.5966 259.846 76.0334C260.384 76.7049 260.818 77.4531 261.134 78.2532C261.527 78.9992 261.995 79.703 262.531 80.3536C262.736 80.6513 263.024 80.8823 263.359 81.018C263.694 81.1538 264.062 81.1883 264.416 81.1174C264.58 81.0577 264.715 80.9386 264.795 80.7838C264.874 80.6289 264.893 80.4498 264.846 80.282ZM259.941 68.0971C260.446 68.0951 260.934 68.2829 261.307 68.6232C261.681 68.9636 261.913 69.4317 261.958 69.935C262.046 70.4047 262.021 70.8884 261.886 71.3467C261.751 71.8051 261.51 72.2251 261.182 72.5725C260.414 73.1999 259.453 73.5415 258.461 73.5392H258.401C258.401 72.7157 258.401 71.8803 258.401 71.0568C258.401 70.4243 258.401 69.8037 258.401 69.1831C258.401 68.8609 258.401 68.5387 258.401 68.2165H258.783C259.163 68.1319 259.552 68.0918 259.941 68.0971Z" fill="#1D1D1B"/>
<path d="M128.079 78.8021C128.052 78.8393 128.017 78.8707 127.978 78.8945C127.939 78.9183 127.895 78.934 127.849 78.9407C127.804 78.9474 127.757 78.9449 127.713 78.9334C127.668 78.9219 127.626 78.9016 127.59 78.8737C127.208 78.6469 127.16 78.1457 127.112 77.7638C127.064 77.3819 126.921 76.6658 126.862 76.1049C126.718 74.7802 126.706 73.4436 126.659 72.1069C126.611 70.7703 126.587 69.0756 126.659 67.5719C126.659 66.9632 126.659 66.3785 126.718 65.746C126.778 65.1134 126.718 64.5525 126.814 64.0393C126.821 63.9958 126.821 63.9516 126.814 63.9081C126.814 63.0965 125.537 63.1801 125.382 63.9081C125.275 64.5874 125.215 65.2733 125.203 65.9608C125.203 66.8439 125.203 67.727 125.203 68.6102C125.203 69.4933 125.203 70.3287 125.203 71.188C124.547 70.6097 123.689 70.3137 122.816 70.3645C121.073 70.4361 120.202 72.095 119.832 73.6107C119.674 74.396 119.606 75.1968 119.629 75.9975C119.628 76.696 119.704 77.3924 119.856 78.0741C120.008 78.8611 120.43 79.5703 121.05 80.079C121.387 80.3318 121.782 80.496 122.199 80.5564C122.616 80.6169 123.041 80.5718 123.436 80.4251C124.267 80.1623 124.983 79.6233 125.465 78.8975C125.598 78.686 125.71 78.4622 125.799 78.2292C125.898 78.5868 126.03 78.9344 126.193 79.2675C126.314 79.5806 126.516 79.856 126.778 80.0657C127.04 80.2753 127.353 80.4117 127.685 80.4609C128.532 80.5325 128.962 79.8881 129.356 79.2675C129.413 79.1547 129.436 79.0272 129.42 78.9016C129.404 78.776 129.351 78.6579 129.268 78.5628C129.184 78.4677 129.074 78.3998 128.951 78.368C128.829 78.3362 128.699 78.3419 128.58 78.3844C128.329 78.444 128.222 78.6589 128.079 78.8021ZM125.227 75.9498C125.227 76.1885 125.143 76.4391 125.095 76.6658C124.967 77.2161 124.701 77.7245 124.32 78.1423C123.94 78.5602 123.459 78.8736 122.923 79.0527C121.324 79.5539 121.205 77.2625 121.121 76.2362C120.931 74.8433 121.226 73.4274 121.957 72.2263C122.119 71.9878 122.355 71.8094 122.629 71.7188C122.903 71.6282 123.2 71.6304 123.472 71.725C123.809 71.8328 124.117 72.014 124.375 72.2555C124.633 72.497 124.834 72.7927 124.964 73.1213C125.141 73.4618 125.242 73.8362 125.262 74.2193C125.315 74.7957 125.303 75.3761 125.227 75.9498Z" fill="#1D1D1B"/>
<path d="M134.165 78.0024C133.461 77.9069 133.414 78.7304 132.853 78.9332C132.674 79.0049 132.471 77.6443 132.459 77.5369C132.381 76.4364 132.381 75.3317 132.459 74.2311C132.459 73.6941 132.459 73.1451 132.518 72.6081C132.578 72.1406 132.578 71.6673 132.518 71.1998C132.486 71.0172 132.386 70.8538 132.237 70.7429C132.088 70.6321 131.903 70.582 131.719 70.6031C130.872 70.6986 131.11 71.6175 131.11 72.2023C131.11 72.7871 131.11 73.718 131.039 74.4698C130.961 75.4748 130.961 76.4842 131.039 77.4892C131.122 78.3127 131.277 79.5896 132.029 80.0909C133.067 80.795 134.416 79.8402 134.798 78.79C134.881 78.4201 134.5 78.0501 134.165 78.0024Z" fill="#1D1D1B"/>
<path d="M132.59 68.2164C132.602 68.1654 132.602 68.1123 132.59 68.0613C132.575 67.968 132.534 67.8809 132.471 67.8106L132.339 67.6913C132.244 67.6131 132.128 67.5634 132.005 67.5481H131.814C131.686 67.5609 131.563 67.606 131.456 67.6794C131.352 67.7589 131.266 67.8609 131.206 67.9777V68.1448V68.3477C131.2 68.4072 131.2 68.4672 131.206 68.5267C131.224 68.6021 131.261 68.6717 131.313 68.7296C131.363 68.8071 131.433 68.8692 131.516 68.9086C131.594 68.9593 131.685 68.9882 131.778 68.9921H131.969C132.097 68.9696 132.219 68.9208 132.327 68.8489L132.459 68.7296C132.535 68.6373 132.585 68.5258 132.602 68.4074V68.2284L132.59 68.2164Z" fill="#1D1D1B"/>
<path d="M140.001 75.2338C139.082 74.6968 137.447 74.3626 137.734 72.9782C137.764 72.7909 137.831 72.6114 137.931 72.45C138.031 72.2886 138.162 72.1485 138.316 72.0376C138.47 71.9268 138.644 71.8474 138.829 71.804C139.014 71.7607 139.205 71.7541 139.393 71.7848C139.49 71.8041 139.581 71.8467 139.658 71.9091C139.735 71.9715 139.795 72.0517 139.834 72.1428C140.085 72.835 141.326 72.656 141.219 71.8326C141.052 70.6391 139.321 70.114 138.199 70.6391C137.634 70.8995 137.146 71.3028 136.784 71.8092C136.422 72.3157 136.198 72.9079 136.135 73.5272C136.063 74.8758 137.459 75.4964 138.45 76.0334C139.028 76.2844 139.567 76.618 140.049 77.024C141.923 78.9215 138.163 79.8285 137.901 78.0384C137.77 77.1672 136.326 77.3343 136.457 78.2055C136.493 78.5238 136.593 78.8316 136.751 79.1105C136.909 79.3893 137.122 79.6335 137.376 79.8285C137.944 80.2016 138.619 80.3777 139.297 80.3298C139.973 80.3847 140.649 80.2394 141.242 79.9121C141.506 79.7301 141.721 79.4855 141.867 79.2001C142.012 78.9147 142.085 78.5975 142.078 78.2771C142.04 77.6292 141.827 77.0039 141.461 76.4679C141.095 75.9318 140.591 75.5053 140.001 75.2338Z" fill="#1D1D1B"/>
<path d="M147.293 78.9212C145.718 79.7805 145.634 76.9043 145.634 76.0212C145.634 74.4339 145.694 72.8586 145.694 71.2475C145.694 70.2689 145.694 69.2903 145.694 68.2997C146.243 68.2997 147.377 68.4429 147.699 67.8462C148.021 67.2495 147.484 66.9511 146.959 66.9153C146.562 66.8773 146.162 66.8773 145.766 66.9153H145.658C145.658 65.8412 145.515 64.7552 145.515 63.6811C145.515 62.798 144.071 62.9651 144.071 63.8482C144.071 64.7314 144.142 65.9248 144.178 66.9631H143.546H143.355C143.184 66.9801 143.024 67.0582 142.906 67.1831C142.787 67.3081 142.718 67.4714 142.71 67.6433C142.709 67.812 142.771 67.975 142.884 68.1007C142.996 68.2264 143.151 68.3058 143.319 68.3236H144.226C144.226 70.1137 144.226 71.9039 144.166 73.694C144.107 75.4842 143.844 77.2743 144.536 78.8138C144.657 79.1576 144.854 79.4692 145.114 79.7248C145.374 79.9803 145.688 80.1731 146.034 80.2883C146.379 80.4035 146.747 80.438 147.108 80.3893C147.469 80.3406 147.814 80.2099 148.117 80.0073C148.952 79.5538 148.069 78.4916 147.293 78.9212Z" fill="#1D1D1B"/>
<path d="M154.597 71.0687C154.482 71.2383 154.33 71.3793 154.152 71.4807C153.974 71.5821 153.775 71.6412 153.57 71.6535C153.366 71.6407 153.174 71.5512 153.033 71.4029C152.878 71.2597 152.819 71.0568 152.652 70.9136C152.103 70.472 151.458 70.9136 151.291 71.4268C151.244 71.5517 151.204 71.6792 151.172 71.8087C150.957 71.2 150.611 70.6749 149.978 70.6152C149.748 70.5976 149.517 70.64 149.308 70.7383C149.098 70.8366 148.918 70.9875 148.785 71.1761C148.641 71.3906 148.536 71.629 148.475 71.8803V72.119C148.463 72.2061 148.463 72.2944 148.475 72.3815C148.507 72.5601 148.607 72.7194 148.753 72.8261C148.9 72.9328 149.082 72.9788 149.262 72.9544C149.572 72.9544 149.668 72.3218 150.05 72.477C150.432 72.6321 150.3 73.014 150.324 73.2408C150.408 74.0762 150.396 74.9355 150.432 75.7709C150.432 76.7853 150.432 77.8116 150.515 78.8141C150.515 79.2915 150.659 80.4014 151.375 80.3298C152.091 80.2581 152.019 79.5779 152.043 79.1363C152.043 78.4919 152.043 77.8594 152.043 77.2149C152.043 76.5704 152.043 75.8902 152.103 75.2457C152.162 74.6013 152.186 74.0523 152.258 73.5033C152.296 73.2256 152.352 72.9506 152.425 72.6799C152.762 72.8907 153.149 73.0062 153.547 73.014C153.966 73.0025 154.377 72.898 154.75 72.7081C155.124 72.5182 155.451 72.2477 155.707 71.9161C156.327 71.2 155.17 70.3885 154.597 71.0687Z" fill="#1D1D1B"/>
<path d="M149.644 72.3696C149.644 72.4173 149.656 72.4411 149.644 72.3696V72.3696Z" fill="#1D1D1B"/>
<path d="M160.886 78.4205C160.731 78.3142 160.543 78.2677 160.357 78.2896C160.17 78.3116 159.998 78.4005 159.872 78.5398C159.72 78.6965 159.517 78.7938 159.299 78.8143C159.216 78.8201 159.132 78.8201 159.048 78.8143C158.985 78.7753 158.932 78.7222 158.893 78.6591C158.768 78.3358 158.708 77.9913 158.714 77.6447C158.685 77.2156 158.685 76.7849 158.714 76.3558C158.714 75.5324 158.714 74.7089 158.714 73.8974C158.714 73.0858 158.714 72.3698 158.714 71.606C158.714 71.2241 158.261 70.9735 157.915 71.0093C157.73 71.0303 157.561 71.1211 157.441 71.2631C157.321 71.4051 157.26 71.5875 157.27 71.773C157.27 72.7517 157.27 73.7303 157.211 74.7089C157.151 75.6875 157.139 76.7855 157.211 77.8118C157.282 78.8382 157.485 79.7571 158.404 80.0913C158.848 80.2357 159.324 80.2507 159.776 80.1344C160.229 80.0182 160.639 79.7755 160.958 79.4349C161.027 79.3671 161.08 79.2852 161.115 79.1948C161.149 79.1043 161.163 79.0076 161.156 78.9111C161.149 78.8147 161.122 78.7209 161.075 78.6362C161.029 78.5515 160.964 78.4779 160.886 78.4205Z" fill="#1D1D1B"/>
<path d="M158.499 67.1543C158.466 67.0711 158.413 66.9973 158.344 66.9395C158.308 66.8909 158.258 66.8536 158.201 66.8321C158.123 66.7796 158.032 66.7506 157.938 66.7485C157.844 66.7248 157.746 66.7248 157.652 66.7485C157.56 66.7592 157.473 66.7965 157.401 66.8559C157.323 66.9082 157.258 66.9776 157.211 67.0588C157.16 67.1338 157.127 67.2196 157.115 67.3094V67.4884C157.115 67.4884 157.115 67.572 157.115 67.6197C157.11 67.6473 157.11 67.6757 157.115 67.7033C157.113 67.7311 157.113 67.759 157.115 67.7868C157.161 67.869 157.221 67.9418 157.294 68.0016C157.365 68.061 157.452 68.0984 157.545 68.109C157.635 68.1328 157.729 68.1328 157.819 68.109C157.916 68.0973 158.01 68.0648 158.094 68.0136C158.177 67.9755 158.251 67.9183 158.308 67.8465L158.404 67.6913C158.461 67.5811 158.481 67.4559 158.464 67.3333L158.499 67.1543Z" fill="#1D1D1B"/>
<path d="M168.154 71.9995C168.056 71.8434 167.94 71.6992 167.808 71.5699C167.459 71.2211 167.018 70.9779 166.537 70.8681C166.056 70.7583 165.553 70.7865 165.087 70.9493C164.509 71.1321 163.993 71.4707 163.595 71.9279C163.595 71.4267 163.595 70.9135 163.595 70.4123C163.595 69.2188 163.882 64.2303 163.882 62.8817C163.882 61.9986 162.45 62.1776 162.45 63.0488C162.45 64.5048 162.211 73.7061 162.295 74.9831C162.311 76.0695 162.572 77.1382 163.058 78.1099C163.249 78.6079 163.584 79.0381 164.019 79.3462C164.455 79.6542 164.972 79.8262 165.505 79.8404C165.942 79.8034 166.367 79.6787 166.754 79.4737C167.142 79.2686 167.484 78.9874 167.76 78.6469C168.226 78.0563 168.538 77.3591 168.667 76.6181C169.039 75.3581 169.002 74.0125 168.56 72.7753C168.456 72.5013 168.32 72.2409 168.154 71.9995ZM166.758 77.7757C166.565 77.9714 166.344 78.1364 166.102 78.265C164.574 79.0527 163.93 76.9403 163.798 75.8066C163.699 74.8608 163.935 73.91 164.467 73.1213C164.678 72.797 164.981 72.5434 165.338 72.3934C165.518 72.2984 165.718 72.2446 165.921 72.2356C166.125 72.2266 166.328 72.2628 166.516 72.3414C166.704 72.4201 166.873 72.5394 167.01 72.6907C167.146 72.842 167.248 73.0217 167.307 73.2168C167.513 73.7952 167.618 74.4048 167.617 75.0189C167.647 75.6719 167.55 76.3244 167.331 76.9403C167.198 77.2546 167.003 77.5387 166.758 77.7757Z" fill="#1D1D1B"/>
<path d="M180.924 78.6824C180.798 78.5434 180.627 78.4538 180.441 78.4297C180.255 78.4056 180.067 78.4487 179.91 78.5511C179.384 78.8853 178.824 79.2672 178.394 78.6466C177.99 77.8899 177.828 77.0279 177.928 76.1762C177.928 75.2334 177.797 74.3025 177.845 73.3478C177.845 72.7988 178.179 70.8654 177.296 70.9609C176.413 71.0564 176.58 72.3811 176.544 73.0613C176.544 73.9684 176.544 74.8754 176.437 75.7704C176.33 76.6493 176.019 77.4911 175.53 78.2289C175.449 78.3967 175.332 78.5452 175.189 78.6642C175.045 78.7832 174.878 78.8699 174.698 78.9186C174.518 78.9673 174.33 78.9767 174.146 78.9462C173.962 78.9158 173.787 78.8462 173.632 78.7421C173.4 78.5412 173.22 78.2874 173.107 78.0021C172.846 77.267 172.721 76.4906 172.737 75.7108L172.63 72.7033C172.63 72.0708 172.832 70.7103 171.806 70.8296C171.209 70.9012 171.15 71.498 171.162 72.0231C171.162 73.3955 171.233 74.768 171.329 76.1404C171.321 77.3166 171.666 78.468 172.319 79.4462C172.516 79.709 172.765 79.9283 173.05 80.0906C173.336 80.2528 173.652 80.3544 173.978 80.389C174.334 80.4489 174.697 80.4489 175.052 80.389C175.345 80.2599 175.609 80.0732 175.828 79.84C176.171 79.5111 176.479 79.1471 176.747 78.754C176.747 78.8614 176.83 78.9688 176.866 79.0882C176.954 79.3466 177.092 79.5852 177.272 79.79C177.452 79.9949 177.671 80.1619 177.917 80.2816C178.387 80.4658 178.899 80.5154 179.396 80.4248C179.681 80.3736 179.958 80.2853 180.22 80.1623C180.411 80.0518 180.595 79.9282 180.769 79.7923C180.867 79.7429 180.953 79.6704 181.017 79.5808C181.081 79.4912 181.123 79.3873 181.138 79.2781C181.153 79.1689 181.142 79.0576 181.105 78.9538C181.067 78.8501 181.005 78.7569 180.924 78.6824Z" fill="#1D1D1B"/>
<path d="M185.805 66.8079C185.984 66.5095 185.805 66.1992 185.447 66.0918C185.076 66.0329 184.697 66.0329 184.325 66.0918H183.323C183.263 65.5126 183.263 64.9287 183.323 64.3494C183.376 63.6941 183.376 63.0356 183.323 62.3803C183.227 61.7239 182.702 61.8313 182.356 62.2609C182.035 62.808 181.897 63.4437 181.962 64.0749C181.998 64.699 181.998 65.3246 181.962 65.9486C181.962 66.1873 181.962 66.1038 181.807 66.1515C181.389 66.247 179.217 65.9725 179.981 67.0943C180.375 67.691 181.819 67.0943 181.938 67.6672C181.98 68.1197 181.98 68.5751 181.938 69.0277C181.938 69.9227 181.938 70.8059 181.938 71.689C181.938 73.336 181.867 74.9829 181.938 76.6179C181.998 77.8113 182.201 79.7327 183.526 80.2817C183.887 80.3889 184.273 80.3872 184.634 80.2768C184.994 80.1665 185.315 79.9523 185.555 79.6611C185.619 79.6026 185.67 79.5298 185.701 79.4485C185.733 79.3672 185.745 79.2796 185.737 79.1926C185.729 79.1057 185.701 79.0219 185.655 78.9479C185.608 78.8738 185.546 78.8116 185.471 78.7661C185.325 78.6566 185.147 78.5975 184.964 78.5975C184.781 78.5975 184.603 78.6566 184.457 78.7661C183.752 79.2196 183.514 78.3722 183.406 77.7636C183.232 76.5385 183.161 75.301 183.192 74.0639C183.192 73.515 183.108 67.2375 183.287 67.2256C183.466 67.2137 183.812 67.2256 184.111 67.2256C184.409 67.2256 185.304 67.2972 185.674 66.963C185.729 66.9226 185.774 66.8694 185.805 66.8079Z" fill="#1D1D1B"/>
<path d="M193.109 74.3148C193.087 73.4342 192.837 72.5744 192.381 71.8206C192.131 71.4858 191.814 71.2069 191.45 71.0014C191.087 70.7959 190.684 70.6685 190.269 70.6271C189.694 70.5609 189.113 70.6526 188.587 70.8923C188.062 71.1321 187.611 71.5108 187.285 71.9876C186.811 72.9413 186.601 74.0044 186.676 75.0667C186.624 76.4701 186.989 77.8574 187.727 79.0527C188.038 79.4872 188.482 79.8099 188.991 79.9732C189.5 80.1365 190.049 80.1318 190.555 79.9598C190.828 79.852 191.085 79.7074 191.319 79.5301C191.834 79.0971 192.252 78.5613 192.548 77.9572C192.844 77.353 193.011 76.6937 193.037 76.0214C193.117 75.4563 193.141 74.8847 193.109 74.3148ZM191.104 77.728C190.972 77.9191 190.82 78.0951 190.65 78.2532C190.269 78.5873 189.517 78.8618 189.099 78.4441C188.931 78.2492 188.791 78.0324 188.681 77.7996C188.253 76.8062 188.049 75.7304 188.085 74.649C188.085 73.4556 188.335 72.0115 189.803 71.9518C191.271 71.8922 191.534 73.1453 191.701 74.2552C191.913 75.4315 191.701 76.6449 191.104 77.6803V77.728Z" fill="#1D1D1B"/>
<path d="M201.165 71.4507C201.097 71.413 201.021 71.3933 200.944 71.3933C200.867 71.3933 200.791 71.413 200.723 71.4507C200.496 71.5819 200.389 71.8445 200.114 71.9042C199.506 72.0593 199.41 71.3552 198.921 71.1046C198.217 70.6988 198.193 71.5581 197.572 71.4626C197.286 71.4626 197.19 71.1046 196.964 70.9017C196.664 70.7054 196.317 70.5949 195.959 70.5823C195.602 70.5696 195.247 70.6554 194.935 70.8301C194.434 71.0926 193.885 71.8803 194.231 72.4293C194.756 73.3005 195.245 72.0832 195.818 72.0951C196.641 72.0951 196.486 73.7182 196.51 74.2314C196.51 75.1742 196.606 76.117 196.606 77.0836C196.606 77.6446 196.606 78.2055 196.606 78.7664C196.606 79.1364 196.546 79.7331 196.844 79.9598C197.143 80.1866 197.608 80.0434 197.823 79.6973C198.044 79.1072 198.121 78.4733 198.05 77.8474C198.109 76.654 198.133 75.5799 198.229 74.4462C198.229 74.1001 198.229 73.0379 198.658 72.9186C198.873 72.9186 199.1 73.1453 199.315 73.205C199.705 73.305 200.118 73.2684 200.485 73.1013C200.852 72.9341 201.151 72.6464 201.332 72.2861C201.378 72.1442 201.386 71.9928 201.357 71.8465C201.328 71.7003 201.262 71.564 201.165 71.4507Z" fill="#1D1D1B"/>
<path d="M204.363 70.9374C203.87 71.1955 203.441 71.5612 203.109 72.0074C202.776 72.4536 202.548 72.9689 202.441 73.5152C202.067 75.1846 202.208 76.9285 202.847 78.5156C203.012 78.96 203.286 79.3552 203.645 79.6642C204.004 79.9732 204.436 80.1858 204.9 80.2819C205.41 80.3139 205.92 80.2308 206.393 80.0387C206.866 79.8465 207.29 79.5503 207.633 79.172C207.895 79.6255 208.015 80.1029 208.623 80.2581C209.017 80.3362 209.424 80.3197 209.81 80.2097C210.196 80.0997 210.55 79.8995 210.843 79.6255C210.955 79.4795 211.008 79.2972 210.993 79.1141C210.977 78.931 210.894 78.7603 210.76 78.635C210.719 78.5884 210.665 78.5551 210.605 78.5395C210.342 78.444 210.175 78.6589 209.984 78.7782C209.891 78.8384 209.787 78.8772 209.677 78.8916C209.568 78.9061 209.456 78.8959 209.351 78.8617C208.934 78.7424 208.826 78.3844 208.802 77.9786C208.779 77.5728 208.802 77.37 208.802 77.0597C208.908 75.9819 208.876 74.8951 208.707 73.8255C208.591 73.33 208.439 72.8434 208.253 72.3695C207.98 71.8244 207.547 71.3759 207.011 71.0837C206.476 70.7915 205.864 70.6697 205.258 70.7345C204.95 70.7456 204.646 70.8144 204.363 70.9374ZM206.893 72.6559C207.287 73.2441 207.51 73.9298 207.537 74.637C207.645 75.8304 207.657 77.5609 206.595 78.3724C206.341 78.582 206.038 78.7245 205.715 78.787C205.392 78.8496 205.058 78.8301 204.745 78.7305C204.46 78.5824 204.233 78.3428 204.1 78.0502C203.277 76.3436 202.979 72.9543 205.139 72.0831C205.453 71.9679 205.797 71.9617 206.115 72.0656C206.433 72.1695 206.707 72.3774 206.893 72.6559Z" fill="#1D1D1B"/>
</svg>
